<svg width="266" height="62" viewBox="0 0 266 62" fill="none" xmlns="http://www.w3.org/2000/svg">
<g filter="url(#filter0_d_89_1818)">
<rect x="4" width="258" height="54" rx="10" fill="#C1D3FF" shape-rendering="crispEdges"/>
<path d="M35.962 33.5V20.9H40.876C41.98 20.9 42.922 21.074 43.702 21.422C44.482 21.77 45.082 22.274 45.502 22.934C45.922 23.594 46.132 24.38 46.132 25.292C46.132 26.204 45.922 26.99 45.502 27.65C45.082 28.298 44.482 28.802 43.702 29.162C42.922 29.51 41.98 29.684 40.876 29.684H36.952L37.762 28.838V33.5H35.962ZM37.762 29.018L36.952 28.118H40.822C41.974 28.118 42.844 27.872 43.432 27.38C44.032 26.888 44.332 26.192 44.332 25.292C44.332 24.392 44.032 23.696 43.432 23.204C42.844 22.712 41.974 22.466 40.822 22.466H36.952L37.762 21.566V29.018ZM54.1099 33.5V31.484L54.0199 31.106V27.668C54.0199 26.936 53.8039 26.372 53.3719 25.976C52.9519 25.568 52.3159 25.364 51.4639 25.364C50.8999 25.364 50.3479 25.46 49.8079 25.652C49.2679 25.832 48.8119 26.078 48.4399 26.39L47.7199 25.094C48.2119 24.698 48.7999 24.398 49.4839 24.194C50.1799 23.978 50.9059 23.87 51.6619 23.87C52.9699 23.87 53.9779 24.188 54.6859 24.824C55.3939 25.46 55.7479 26.432 55.7479 27.74V33.5H54.1099ZM50.9779 33.608C50.2699 33.608 49.6459 33.488 49.1059 33.248C48.5779 33.008 48.1699 32.678 47.8819 32.258C47.5939 31.826 47.4499 31.34 47.4499 30.8C47.4499 30.284 47.5699 29.816 47.8099 29.396C48.0619 28.976 48.4639 28.64 49.0159 28.388C49.5799 28.136 50.3359 28.01 51.2839 28.01H54.3079V29.252H51.3559C50.4919 29.252 49.9099 29.396 49.6099 29.684C49.3099 29.972 49.1599 30.32 49.1599 30.728C49.1599 31.196 49.3459 31.574 49.7179 31.862C50.0899 32.138 50.6059 32.276 51.2659 32.276C51.9139 32.276 52.4779 32.132 52.9579 31.844C53.4499 31.556 53.8039 31.136 54.0199 30.584L54.3619 31.772C54.1339 32.336 53.7319 32.786 53.1559 33.122C52.5799 33.446 51.8539 33.608 50.9779 33.608ZM63.0175 33.608C62.0455 33.608 61.1755 33.398 60.4075 32.978C59.6515 32.558 59.0575 31.982 58.6255 31.25C58.1935 30.518 57.9775 29.678 57.9775 28.73C57.9775 27.782 58.1935 26.942 58.6255 26.21C59.0575 25.478 59.6515 24.908 60.4075 24.5C61.1755 24.08 62.0455 23.87 63.0175 23.87C63.8815 23.87 64.6495 24.044 65.3215 24.392C66.0055 24.728 66.5335 25.232 66.9055 25.904L65.5915 26.75C65.2795 26.282 64.8955 25.94 64.4395 25.724C63.9955 25.496 63.5155 25.382 62.9995 25.382C62.3755 25.382 61.8175 25.52 61.3255 25.796C60.8335 26.072 60.4435 26.462 60.1555 26.966C59.8675 27.458 59.7235 28.046 59.7235 28.73C59.7235 29.414 59.8675 30.008 60.1555 30.512C60.4435 31.016 60.8335 31.406 61.3255 31.682C61.8175 31.958 62.3755 32.096 62.9995 32.096C63.5155 32.096 63.9955 31.988 64.4395 31.772C64.8955 31.544 65.2795 31.196 65.5915 30.728L66.9055 31.556C66.5335 32.216 66.0055 32.726 65.3215 33.086C64.6495 33.434 63.8815 33.608 63.0175 33.608ZM69.1428 33.5V23.96H77.9808V33.5H76.2528V25.04L76.6668 25.472H70.4568L70.8708 25.04V33.5H69.1428ZM81.3244 33.5V23.96H83.0524V30.908L88.9024 23.96H90.4684V33.5H88.7404V26.552L82.9084 33.5H81.3244ZM97.9804 33.608C97.0084 33.608 96.1384 33.398 95.3704 32.978C94.6144 32.558 94.0204 31.982 93.5884 31.25C93.1564 30.518 92.9404 29.678 92.9404 28.73C92.9404 27.782 93.1564 26.942 93.5884 26.21C94.0204 25.478 94.6144 24.908 95.3704 24.5C96.1384 24.08 97.0084 23.87 97.9804 23.87C98.8444 23.87 99.6124 24.044 100.284 24.392C100.968 24.728 101.496 25.232 101.868 25.904L100.554 26.75C100.242 26.282 99.8584 25.94 99.4024 25.724C98.9584 25.496 98.4784 25.382 97.9624 25.382C97.3384 25.382 96.7804 25.52 96.2884 25.796C95.7964 26.072 95.4064 26.462 95.1184 26.966C94.8304 27.458 94.6864 28.046 94.6864 28.73C94.6864 29.414 94.8304 30.008 95.1184 30.512C95.4064 31.016 95.7964 31.406 96.2884 31.682C96.7804 31.958 97.3384 32.096 97.9624 32.096C98.4784 32.096 98.9584 31.988 99.4024 31.772C99.8584 31.544 100.242 31.196 100.554 30.728L101.868 31.556C101.496 32.216 100.968 32.726 100.284 33.086C99.6124 33.434 98.8444 33.608 97.9804 33.608ZM109.956 33.5V31.484L109.866 31.106V27.668C109.866 26.936 109.65 26.372 109.218 25.976C108.798 25.568 108.162 25.364 107.31 25.364C106.746 25.364 106.194 25.46 105.654 25.652C105.114 25.832 104.658 26.078 104.286 26.39L103.566 25.094C104.058 24.698 104.646 24.398 105.33 24.194C106.026 23.978 106.752 23.87 107.508 23.87C108.816 23.87 109.824 24.188 110.532 24.824C111.24 25.46 111.594 26.432 111.594 27.74V33.5H109.956ZM106.824 33.608C106.116 33.608 105.492 33.488 104.952 33.248C104.424 33.008 104.016 32.678 103.728 32.258C103.44 31.826 103.296 31.34 103.296 30.8C103.296 30.284 103.416 29.816 103.656 29.396C103.908 28.976 104.31 28.64 104.862 28.388C105.426 28.136 106.182 28.01 107.13 28.01H110.154V29.252H107.202C106.338 29.252 105.756 29.396 105.456 29.684C105.156 29.972 105.006 30.32 105.006 30.728C105.006 31.196 105.192 31.574 105.564 31.862C105.936 32.138 106.452 32.276 107.112 32.276C107.76 32.276 108.324 32.132 108.804 31.844C109.296 31.556 109.65 31.136 109.866 30.584L110.208 31.772C109.98 32.336 109.578 32.786 109.002 33.122C108.426 33.446 107.7 33.608 106.824 33.608ZM114.705 33.5V23.96H116.433V28.01H121.869V23.96H123.597V33.5H121.869V29.504H116.433V33.5H114.705ZM126.957 33.5V23.96H128.685V30.908L134.535 23.96H136.101V33.5H134.373V26.552L128.541 33.5H126.957ZM143.703 33.608C142.683 33.608 141.783 33.398 141.003 32.978C140.235 32.558 139.635 31.982 139.203 31.25C138.783 30.518 138.573 29.678 138.573 28.73C138.573 27.782 138.777 26.942 139.185 26.21C139.605 25.478 140.175 24.908 140.895 24.5C141.627 24.08 142.449 23.87 143.361 23.87C144.285 23.87 145.101 24.074 145.809 24.482C146.517 24.89 147.069 25.466 147.465 26.21C147.873 26.942 148.077 27.8 148.077 28.784C148.077 28.856 148.071 28.94 148.059 29.036C148.059 29.132 148.053 29.222 148.041 29.306H139.923V28.064H147.141L146.439 28.496C146.451 27.884 146.325 27.338 146.061 26.858C145.797 26.378 145.431 26.006 144.963 25.742C144.507 25.466 143.973 25.328 143.361 25.328C142.761 25.328 142.227 25.466 141.759 25.742C141.291 26.006 140.925 26.384 140.661 26.876C140.397 27.356 140.265 27.908 140.265 28.532V28.82C140.265 29.456 140.409 30.026 140.697 30.53C140.997 31.022 141.411 31.406 141.939 31.682C142.467 31.958 143.073 32.096 143.757 32.096C144.321 32.096 144.831 32 145.287 31.808C145.755 31.616 146.163 31.328 146.511 30.944L147.465 32.06C147.033 32.564 146.493 32.948 145.845 33.212C145.209 33.476 144.495 33.608 143.703 33.608ZM158.382 33.626C157.662 33.626 156.954 33.536 156.258 33.356C155.574 33.164 154.962 32.894 154.422 32.546L154.944 31.232C155.4 31.52 155.922 31.748 156.51 31.916C157.098 32.072 157.692 32.15 158.292 32.15C158.844 32.15 159.318 32.084 159.714 31.952C160.122 31.82 160.434 31.64 160.65 31.412C160.866 31.172 160.974 30.896 160.974 30.584C160.974 30.14 160.776 29.798 160.38 29.558C159.984 29.318 159.432 29.198 158.724 29.198H156.996V27.956H158.616C159.036 27.956 159.402 27.908 159.714 27.812C160.026 27.716 160.266 27.572 160.434 27.38C160.614 27.176 160.704 26.942 160.704 26.678C160.704 26.39 160.602 26.144 160.398 25.94C160.194 25.736 159.906 25.58 159.534 25.472C159.174 25.364 158.748 25.31 158.256 25.31C157.776 25.322 157.284 25.388 156.78 25.508C156.288 25.628 155.784 25.814 155.268 26.066L154.8 24.716C155.376 24.44 155.94 24.23 156.492 24.086C157.056 23.93 157.614 23.846 158.166 23.834C158.994 23.81 159.732 23.906 160.38 24.122C161.028 24.326 161.538 24.626 161.91 25.022C162.294 25.418 162.486 25.886 162.486 26.426C162.486 26.882 162.342 27.29 162.054 27.65C161.766 27.998 161.382 28.274 160.902 28.478C160.422 28.682 159.87 28.784 159.246 28.784L159.318 28.37C160.386 28.37 161.226 28.58 161.838 29C162.45 29.42 162.756 29.99 162.756 30.71C162.756 31.286 162.564 31.796 162.18 32.24C161.796 32.672 161.274 33.014 160.614 33.266C159.966 33.506 159.222 33.626 158.382 33.626ZM171.233 33.5V31.484L171.143 31.106V27.668C171.143 26.936 170.927 26.372 170.495 25.976C170.075 25.568 169.439 25.364 168.587 25.364C168.023 25.364 167.471 25.46 166.931 25.652C166.391 25.832 165.935 26.078 165.563 26.39L164.843 25.094C165.335 24.698 165.923 24.398 166.607 24.194C167.303 23.978 168.029 23.87 168.785 23.87C170.093 23.87 171.101 24.188 171.809 24.824C172.517 25.46 172.871 26.432 172.871 27.74V33.5H171.233ZM168.101 33.608C167.393 33.608 166.769 33.488 166.229 33.248C165.701 33.008 165.293 32.678 165.005 32.258C164.717 31.826 164.573 31.34 164.573 30.8C164.573 30.284 164.693 29.816 164.933 29.396C165.185 28.976 165.587 28.64 166.139 28.388C166.703 28.136 167.459 28.01 168.407 28.01H171.431V29.252H168.479C167.615 29.252 167.033 29.396 166.733 29.684C166.433 29.972 166.283 30.32 166.283 30.728C166.283 31.196 166.469 31.574 166.841 31.862C167.213 32.138 167.729 32.276 168.389 32.276C169.037 32.276 169.601 32.132 170.081 31.844C170.573 31.556 170.927 31.136 171.143 30.584L171.485 31.772C171.257 32.336 170.855 32.786 170.279 33.122C169.703 33.446 168.977 33.608 168.101 33.608ZM175.983 33.5V23.96H177.711V28.01H183.147V23.96H184.875V33.5H183.147V29.504H177.711V33.5H175.983ZM194.337 33.5V30.152L194.607 30.476H191.565C190.293 30.476 189.297 30.206 188.577 29.666C187.869 29.126 187.515 28.34 187.515 27.308C187.515 26.204 187.893 25.37 188.649 24.806C189.417 24.242 190.437 23.96 191.709 23.96H195.885V33.5H194.337ZM187.425 33.5L190.017 29.846H191.799L189.279 33.5H187.425ZM194.337 29.612V24.986L194.607 25.472H191.763C190.971 25.472 190.359 25.622 189.927 25.922C189.495 26.21 189.279 26.69 189.279 27.362C189.279 28.61 190.083 29.234 191.691 29.234H194.607L194.337 29.612ZM201.146 33.5V25.022L201.578 25.472H197.654V23.96H206.366V25.472H202.46L202.874 25.022V33.5H201.146ZM208.133 33.5V23.96H209.861V30.908L215.711 23.96H217.277V33.5H215.549V26.552L209.717 33.5H208.133ZM220.631 33.5V23.96H222.359V30.908L228.209 23.96H229.775V33.5H228.047V26.552L222.215 33.5H220.631ZM225.095 22.718C224.219 22.718 223.529 22.508 223.025 22.088C222.533 21.656 222.281 21.038 222.269 20.234H223.439C223.451 20.69 223.601 21.05 223.889 21.314C224.189 21.578 224.585 21.71 225.077 21.71C225.569 21.71 225.965 21.578 226.265 21.314C226.565 21.05 226.721 20.69 226.733 20.234H227.939C227.927 21.038 227.669 21.656 227.165 22.088C226.661 22.508 225.971 22.718 225.095 22.718Z" fill="black"/>
</g>
<defs>
<filter id="filter0_d_89_1818" x="0" y="0" width="266" height="62" filterUnits="userSpaceOnUse" color-interpolation-filters="sRGB">
<feFlood flood-opacity="0" result="BackgroundImageFix"/>
<feColorMatrix in="SourceAlpha" type="matrix" values="0 0 0 0 0 0 0 0 0 0 0 0 0 0 0 0 0 0 127 0" result="hardAlpha"/>
<feOffset dy="4"/>
<feGaussianBlur stdDeviation="2"/>
<feComposite in2="hardAlpha" operator="out"/>
<feColorMatrix type="matrix" values="0 0 0 0 0 0 0 0 0 0 0 0 0 0 0 0 0 0 0.25 0"/>
<feBlend mode="normal" in2="BackgroundImageFix" result="effect1_dropShadow_89_1818"/>
<feBlend mode="normal" in="SourceGraphic" in2="effect1_dropShadow_89_1818" result="shape"/>
</filter>
</defs>
</svg>
