<svg width="281" height="62" viewBox="0 0 281 62" fill="none" xmlns="http://www.w3.org/2000/svg">
<g filter="url(#filter0_d_76_179)">
<rect x="4" width="273" height="54" rx="10" fill="#0449FC" shape-rendering="crispEdges"/>
<path d="M35.962 33.5V20.9H46.816V33.5H45.052V21.998L45.484 22.466H37.294L37.744 21.998V33.5H35.962ZM54.5432 33.608C53.5832 33.608 52.7312 33.398 51.9872 32.978C51.2432 32.558 50.6552 31.982 50.2232 31.25C49.7912 30.506 49.5752 29.666 49.5752 28.73C49.5752 27.782 49.7912 26.942 50.2232 26.21C50.6552 25.478 51.2432 24.908 51.9872 24.5C52.7312 24.08 53.5832 23.87 54.5432 23.87C55.4912 23.87 56.3372 24.08 57.0812 24.5C57.8372 24.908 58.4252 25.478 58.8452 26.21C59.2772 26.93 59.4932 27.77 59.4932 28.73C59.4932 29.678 59.2772 30.518 58.8452 31.25C58.4252 31.982 57.8372 32.558 57.0812 32.978C56.3372 33.398 55.4912 33.608 54.5432 33.608ZM54.5432 32.096C55.1552 32.096 55.7012 31.958 56.1812 31.682C56.6732 31.406 57.0572 31.016 57.3332 30.512C57.6092 29.996 57.7472 29.402 57.7472 28.73C57.7472 28.046 57.6092 27.458 57.3332 26.966C57.0572 26.462 56.6732 26.072 56.1812 25.796C55.7012 25.52 55.1552 25.382 54.5432 25.382C53.9312 25.382 53.3852 25.52 52.9052 25.796C52.4252 26.072 52.0412 26.462 51.7532 26.966C51.4652 27.458 51.3212 28.046 51.3212 28.73C51.3212 29.402 51.4652 29.996 51.7532 30.512C52.0412 31.016 52.4252 31.406 52.9052 31.682C53.3852 31.958 53.9312 32.096 54.5432 32.096ZM68.4341 32.69V25.472H64.2941L64.2041 27.308C64.1801 27.908 64.1381 28.49 64.0781 29.054C64.0301 29.606 63.9461 30.116 63.8261 30.584C63.7181 31.052 63.5561 31.436 63.3401 31.736C63.1241 32.036 62.8361 32.222 62.4761 32.294L60.7661 31.988C61.1381 32 61.4381 31.88 61.6661 31.628C61.8941 31.364 62.0681 31.004 62.1881 30.548C62.3201 30.092 62.4161 29.576 62.4761 29C62.5361 28.412 62.5841 27.806 62.6201 27.182L62.7641 23.96H70.1621V32.69H68.4341ZM60.3881 35.714V31.988H71.6201V35.714H70.0001V33.5H62.0261V35.714H60.3881ZM79.7213 33.5V31.484L79.6313 31.106V27.668C79.6313 26.936 79.4153 26.372 78.9833 25.976C78.5633 25.568 77.9273 25.364 77.0753 25.364C76.5113 25.364 75.9593 25.46 75.4193 25.652C74.8793 25.832 74.4233 26.078 74.0513 26.39L73.3313 25.094C73.8233 24.698 74.4113 24.398 75.0953 24.194C75.7913 23.978 76.5173 23.87 77.2733 23.87C78.5813 23.87 79.5893 24.188 80.2973 24.824C81.0053 25.46 81.3593 26.432 81.3593 27.74V33.5H79.7213ZM76.5893 33.608C75.8813 33.608 75.2573 33.488 74.7173 33.248C74.1893 33.008 73.7813 32.678 73.4933 32.258C73.2053 31.826 73.0613 31.34 73.0613 30.8C73.0613 30.284 73.1813 29.816 73.4213 29.396C73.6733 28.976 74.0753 28.64 74.6273 28.388C75.1913 28.136 75.9473 28.01 76.8953 28.01H79.9193V29.252H76.9673C76.1033 29.252 75.5213 29.396 75.2213 29.684C74.9213 29.972 74.7713 30.32 74.7713 30.728C74.7713 31.196 74.9573 31.574 75.3293 31.862C75.7013 32.138 76.2173 32.276 76.8773 32.276C77.5253 32.276 78.0893 32.132 78.5693 31.844C79.0613 31.556 79.4153 31.136 79.6313 30.584L79.9733 31.772C79.7453 32.336 79.3433 32.786 78.7673 33.122C78.1913 33.446 77.4653 33.608 76.5893 33.608ZM86.3609 33.5V25.022L86.7929 25.472H82.8689V23.96H91.5809V25.472H87.6749L88.0889 25.022V33.5H86.3609ZM97.7578 27.2C98.9698 27.212 99.8938 27.488 100.53 28.028C101.166 28.568 101.484 29.33 101.484 30.314C101.484 31.346 101.136 32.144 100.44 32.708C99.7438 33.26 98.7598 33.53 97.4878 33.518L93.3478 33.5V23.96H95.0758V27.182L97.7578 27.2ZM97.3438 32.204C98.1238 32.216 98.7118 32.06 99.1078 31.736C99.5158 31.412 99.7198 30.932 99.7198 30.296C99.7198 29.672 99.5218 29.216 99.1258 28.928C98.7298 28.64 98.1358 28.49 97.3438 28.478L95.0758 28.442V32.186L97.3438 32.204ZM115.051 32.69V25.472H110.911L110.821 27.308C110.797 27.908 110.755 28.49 110.695 29.054C110.647 29.606 110.563 30.116 110.443 30.584C110.335 31.052 110.173 31.436 109.957 31.736C109.741 32.036 109.453 32.222 109.093 32.294L107.383 31.988C107.755 32 108.055 31.88 108.283 31.628C108.511 31.364 108.685 31.004 108.805 30.548C108.937 30.092 109.033 29.576 109.093 29C109.153 28.412 109.201 27.806 109.237 27.182L109.381 23.96H116.779V32.69H115.051ZM107.005 35.714V31.988H118.237V35.714H116.617V33.5H108.643V35.714H107.005ZM124.574 33.608C123.614 33.608 122.762 33.398 122.018 32.978C121.274 32.558 120.686 31.982 120.254 31.25C119.822 30.506 119.606 29.666 119.606 28.73C119.606 27.782 119.822 26.942 120.254 26.21C120.686 25.478 121.274 24.908 122.018 24.5C122.762 24.08 123.614 23.87 124.574 23.87C125.522 23.87 126.368 24.08 127.112 24.5C127.868 24.908 128.456 25.478 128.876 26.21C129.308 26.93 129.524 27.77 129.524 28.73C129.524 29.678 129.308 30.518 128.876 31.25C128.456 31.982 127.868 32.558 127.112 32.978C126.368 33.398 125.522 33.608 124.574 33.608ZM124.574 32.096C125.186 32.096 125.732 31.958 126.212 31.682C126.704 31.406 127.088 31.016 127.364 30.512C127.64 29.996 127.778 29.402 127.778 28.73C127.778 28.046 127.64 27.458 127.364 26.966C127.088 26.462 126.704 26.072 126.212 25.796C125.732 25.52 125.186 25.382 124.574 25.382C123.962 25.382 123.416 25.52 122.936 25.796C122.456 26.072 122.072 26.462 121.784 26.966C121.496 27.458 121.352 28.046 121.352 28.73C121.352 29.402 121.496 29.996 121.784 30.512C122.072 31.016 122.456 31.406 122.936 31.682C123.416 31.958 123.962 32.096 124.574 32.096ZM138.932 33.5L135.242 28.856L136.664 27.992L140.966 33.5H138.932ZM132.02 33.5V23.96H133.748V33.5H132.02ZM133.226 29.468V27.992H136.376V29.468H133.226ZM136.808 28.928L135.206 28.712L138.86 23.96H140.714L136.808 28.928ZM142.719 37.1C142.263 37.1 141.819 37.022 141.387 36.866C140.955 36.722 140.583 36.506 140.271 36.218L141.009 34.922C141.249 35.15 141.513 35.324 141.801 35.444C142.089 35.564 142.395 35.624 142.719 35.624C143.139 35.624 143.487 35.516 143.763 35.3C144.039 35.084 144.297 34.7 144.537 34.148L145.131 32.834L145.311 32.618L149.055 23.96H150.747L146.121 34.454C145.845 35.126 145.533 35.654 145.185 36.038C144.849 36.422 144.477 36.692 144.069 36.848C143.661 37.016 143.211 37.1 142.719 37.1ZM144.987 33.806L140.631 23.96H142.431L146.139 32.456L144.987 33.806ZM152.516 33.5V23.96H154.298L158.402 31.016H157.682L161.894 23.96H163.514V33.5H161.948V25.904L162.236 26.066L158.384 32.42H157.628L153.758 25.94L154.1 25.868V33.5H152.516ZM171.125 33.608C170.105 33.608 169.205 33.398 168.425 32.978C167.657 32.558 167.057 31.982 166.625 31.25C166.205 30.518 165.995 29.678 165.995 28.73C165.995 27.782 166.199 26.942 166.607 26.21C167.027 25.478 167.597 24.908 168.317 24.5C169.049 24.08 169.871 23.87 170.783 23.87C171.707 23.87 172.523 24.074 173.231 24.482C173.939 24.89 174.491 25.466 174.887 26.21C175.295 26.942 175.499 27.8 175.499 28.784C175.499 28.856 175.493 28.94 175.481 29.036C175.481 29.132 175.475 29.222 175.463 29.306H167.345V28.064H174.563L173.861 28.496C173.873 27.884 173.747 27.338 173.483 26.858C173.219 26.378 172.853 26.006 172.385 25.742C171.929 25.466 171.395 25.328 170.783 25.328C170.183 25.328 169.649 25.466 169.181 25.742C168.713 26.006 168.347 26.384 168.083 26.876C167.819 27.356 167.687 27.908 167.687 28.532V28.82C167.687 29.456 167.831 30.026 168.119 30.53C168.419 31.022 168.833 31.406 169.361 31.682C169.889 31.958 170.495 32.096 171.179 32.096C171.743 32.096 172.253 32 172.709 31.808C173.177 31.616 173.585 31.328 173.933 30.944L174.887 32.06C174.455 32.564 173.915 32.948 173.267 33.212C172.631 33.476 171.917 33.608 171.125 33.608ZM178.18 33.5V23.96H179.908V28.01H185.344V23.96H187.072V33.5H185.344V29.504H179.908V33.5H178.18ZM192.322 33.5V25.022L192.754 25.472H188.83V23.96H197.542V25.472H193.636L194.05 25.022V33.5H192.322ZM208.741 33.5V23.96H210.469V33.5H208.741ZM203.611 27.2C204.823 27.212 205.741 27.488 206.365 28.028C207.001 28.568 207.319 29.33 207.319 30.314C207.319 31.346 206.971 32.144 206.275 32.708C205.591 33.26 204.607 33.53 203.323 33.518L199.309 33.5V23.96H201.037V27.182L203.611 27.2ZM203.197 32.204C203.965 32.216 204.553 32.06 204.961 31.736C205.369 31.412 205.573 30.932 205.573 30.296C205.573 29.672 205.369 29.216 204.961 28.928C204.565 28.64 203.977 28.49 203.197 28.478L201.037 28.442V32.186L203.197 32.204Z" fill="#F8F8F8"/>
<path d="M230 32L240 22" stroke="#F8F8F8" stroke-width="1.5" stroke-linecap="round" stroke-linejoin="round"/>
<path d="M230 22H240V32" stroke="#F8F8F8" stroke-width="1.5" stroke-linecap="round" stroke-linejoin="round"/>
</g>
<defs>
<filter id="filter0_d_76_179" x="0" y="0" width="281" height="62" filterUnits="userSpaceOnUse" color-interpolation-filters="sRGB">
<feFlood flood-opacity="0" result="BackgroundImageFix"/>
<feColorMatrix in="SourceAlpha" type="matrix" values="0 0 0 0 0 0 0 0 0 0 0 0 0 0 0 0 0 0 127 0" result="hardAlpha"/>
<feOffset dy="4"/>
<feGaussianBlur stdDeviation="2"/>
<feComposite in2="hardAlpha" operator="out"/>
<feColorMatrix type="matrix" values="0 0 0 0 0 0 0 0 0 0 0 0 0 0 0 0 0 0 0.25 0"/>
<feBlend mode="normal" in2="BackgroundImageFix" result="effect1_dropShadow_76_179"/>
<feBlend mode="normal" in="SourceGraphic" in2="effect1_dropShadow_76_179" result="shape"/>
</filter>
</defs>
</svg>
