<svg width="1920" height="80" viewBox="0 0 1920 80" fill="none" xmlns="http://www.w3.org/2000/svg">
<rect width="1920" height="80" fill="#E3EBFF"/>
<path d="M555.888 34.8H563.008V35.824H557.04L557.056 46H555.888V34.8ZM562.833 40.592L562.977 37.584H569.137V46H568.001V38.592H563.969L563.857 40.672C563.713 43.616 563.345 46.096 561.537 46.096C561.281 46.096 561.025 46.048 560.721 45.984L560.801 45.008C560.945 45.04 561.089 45.056 561.201 45.056C562.593 45.056 562.721 42.816 562.833 40.592ZM575.262 37.52C577.438 37.52 578.67 38.608 578.67 40.784V46H577.582V44.688C577.054 45.552 576.078 46.08 574.686 46.08C572.782 46.08 571.614 45.088 571.614 43.632C571.614 42.336 572.446 41.248 574.862 41.248H577.534V40.736C577.534 39.296 576.718 38.512 575.15 38.512C574.062 38.512 573.038 38.896 572.35 39.504L571.838 38.656C572.686 37.936 573.934 37.52 575.262 37.52ZM574.862 45.184C576.142 45.184 577.086 44.576 577.534 43.472V42.096H574.894C573.262 42.096 572.734 42.736 572.734 43.6C572.734 44.576 573.518 45.184 574.862 45.184ZM587.054 41.648C588.222 41.92 588.766 42.608 588.766 43.712C588.766 45.168 587.71 46 585.518 46H581.694V37.584H585.406C587.31 37.584 588.478 38.352 588.478 39.744C588.478 40.688 587.934 41.328 587.054 41.648ZM585.326 38.48H582.798V41.328H585.326C586.622 41.328 587.342 40.832 587.342 39.888C587.342 38.944 586.622 38.48 585.326 38.48ZM582.798 45.104H585.47C586.894 45.104 587.646 44.656 587.646 43.648C587.646 42.64 587.006 42.176 585.582 42.176H582.798V45.104ZM592.565 46H591.429V37.584H592.565V41.312H597.861V37.584H598.997V46H597.861V42.288H592.565V46ZM605.121 37.52C607.297 37.52 608.529 38.608 608.529 40.784V46H607.441V44.688C606.913 45.552 605.937 46.08 604.545 46.08C602.641 46.08 601.473 45.088 601.473 43.632C601.473 42.336 602.305 41.248 604.721 41.248H607.393V40.736C607.393 39.296 606.577 38.512 605.009 38.512C603.921 38.512 602.897 38.896 602.209 39.504L601.697 38.656C602.545 37.936 603.793 37.52 605.121 37.52ZM604.721 45.184C606.001 45.184 606.945 44.576 607.393 43.472V42.096H604.753C603.121 42.096 602.593 42.736 602.593 43.6C602.593 44.576 603.377 45.184 604.721 45.184ZM614.482 37.584H618.017V46H616.978V43.216H614.338H614.018L612.066 46H610.834L612.93 43.056C611.634 42.704 610.898 41.824 610.898 40.464C610.898 38.544 612.306 37.584 614.482 37.584ZM612.049 40.496C612.049 41.776 612.866 42.368 614.434 42.368H616.978V38.592H614.514C612.946 38.592 612.049 39.152 612.049 40.496Z" fill="black"/>
<path d="M651.664 46H650.416L649.072 43.008H642.816L641.472 46H640.256L645.376 34.8H646.528L651.664 46ZM645.952 36.048L643.248 42.048H648.64L645.952 36.048ZM657.446 38.048C659.782 38.048 661.478 39.696 661.478 42.032C661.478 44.384 659.766 46.096 657.142 46.096C654.422 46.096 652.838 44.272 652.838 40.672C652.838 36.688 654.838 35.232 657.094 34.736L660.87 33.856L661.062 34.912L657.51 35.712C656.374 35.968 654.086 36.464 653.942 40.096C654.598 38.832 655.878 38.048 657.446 38.048ZM657.27 45.152C659.062 45.152 660.326 43.824 660.326 42.048C660.326 40.304 659.078 39.056 657.254 39.056C655.462 39.056 654.198 40.272 654.198 42.032C654.198 43.792 655.478 45.152 657.27 45.152ZM664.937 46H663.913V37.584H665.049V44.272L670.665 37.584H671.673V46H670.537V39.312L664.937 46ZM673.345 37.584H680.849V38.592H677.665V46H676.529V38.592H673.345V37.584ZM685.355 44.736L688.523 37.584H689.643L685.435 47.008C684.731 48.656 683.835 49.184 682.635 49.184C681.851 49.184 681.099 48.928 680.587 48.416L681.115 47.568C681.531 47.984 682.043 48.208 682.651 48.208C683.403 48.208 683.915 47.856 684.395 46.8L684.763 45.984L681.003 37.584H682.203L685.355 44.736ZM695.749 37.52C698.165 37.52 699.957 39.248 699.957 41.792C699.957 44.352 698.165 46.08 695.749 46.08C694.421 46.08 693.253 45.504 692.565 44.416V49.104H691.429V37.584H692.517V39.248C693.205 38.128 694.373 37.52 695.749 37.52ZM695.669 45.072C697.461 45.072 698.805 43.76 698.805 41.792C698.805 39.84 697.461 38.512 695.669 38.512C693.893 38.512 692.533 39.84 692.533 41.792C692.533 43.76 693.893 45.072 695.669 45.072ZM703.406 46H702.382V37.584H703.518V44.272L709.134 37.584H710.142V46H709.006V39.312L703.406 46ZM720.773 41.792C720.773 41.888 720.773 42.016 720.757 42.144H713.717C713.845 43.904 715.189 45.072 717.029 45.072C718.069 45.072 718.981 44.704 719.605 43.968L720.245 44.704C719.493 45.6 718.341 46.08 717.013 46.08C714.389 46.08 712.597 44.288 712.597 41.792C712.597 39.296 714.341 37.52 716.709 37.52C719.061 37.52 720.773 39.264 720.773 41.792ZM716.709 38.496C715.061 38.496 713.861 39.648 713.717 41.296H719.685C719.557 39.648 718.341 38.496 716.709 38.496ZM724.424 46H723.288V37.584H724.424V41.312H729.72V37.584H730.856V46H729.72V42.288H724.424V46ZM732.501 37.584H740.005V38.592H736.821V46H735.685V38.592H732.501V37.584ZM744.543 37.52C746.719 37.52 747.951 38.608 747.951 40.784V46H746.863V44.688C746.335 45.552 745.359 46.08 743.967 46.08C742.063 46.08 740.895 45.088 740.895 43.632C740.895 42.336 741.727 41.248 744.143 41.248H746.815V40.736C746.815 39.296 745.999 38.512 744.431 38.512C743.343 38.512 742.319 38.896 741.631 39.504L741.119 38.656C741.967 37.936 743.215 37.52 744.543 37.52ZM744.143 45.184C745.423 45.184 746.367 44.576 746.815 43.472V42.096H744.175C742.543 42.096 742.015 42.736 742.015 43.6C742.015 44.576 742.799 45.184 744.143 45.184ZM755.695 43.648L759.327 37.584H760.383V46H759.343V39.344L755.935 44.976H755.423L752.015 39.328V46H750.975V37.584H752.127L755.695 43.648Z" fill="black" fill-opacity="0.5"/>
<path d="M788.8 46.096C785.424 46.096 782.912 43.664 782.912 40.4C782.912 37.136 785.424 34.704 788.8 34.704C792.176 34.704 794.688 37.12 794.688 40.4C794.688 43.68 792.176 46.096 788.8 46.096ZM788.8 45.04C791.488 45.04 793.504 43.072 793.504 40.4C793.504 37.728 791.488 35.76 788.8 35.76C786.112 35.76 784.096 37.728 784.096 40.4C784.096 43.072 786.112 45.04 788.8 45.04ZM801.305 38.048C803.641 38.048 805.337 39.696 805.337 42.032C805.337 44.384 803.625 46.096 801.001 46.096C798.281 46.096 796.697 44.272 796.697 40.672C796.697 36.688 798.697 35.232 800.953 34.736L804.729 33.856L804.921 34.912L801.369 35.712C800.233 35.968 797.945 36.464 797.801 40.096C798.457 38.832 799.737 38.048 801.305 38.048ZM801.129 45.152C802.921 45.152 804.185 43.824 804.185 42.048C804.185 40.304 802.937 39.056 801.113 39.056C799.321 39.056 798.057 40.272 798.057 42.032C798.057 43.792 799.337 45.152 801.129 45.152ZM810.402 44.736L813.57 37.584H814.69L810.482 47.008C809.778 48.656 808.882 49.184 807.682 49.184C806.898 49.184 806.146 48.928 805.634 48.416L806.162 47.568C806.578 47.984 807.09 48.208 807.698 48.208C808.45 48.208 808.962 47.856 809.442 46.8L809.81 45.984L806.05 37.584H807.25L810.402 44.736ZM821.676 41.584V37.584H822.812V46H821.676V42.496C820.732 42.912 819.756 43.136 818.812 43.136C816.844 43.136 815.596 42.256 815.596 40.352V37.584H816.732V40.288C816.732 41.568 817.612 42.208 819.02 42.208C819.836 42.208 820.732 41.984 821.676 41.584ZM828.934 37.52C831.11 37.52 832.342 38.608 832.342 40.784V46H831.254V44.688C830.726 45.552 829.75 46.08 828.358 46.08C826.454 46.08 825.286 45.088 825.286 43.632C825.286 42.336 826.118 41.248 828.534 41.248H831.206V40.736C831.206 39.296 830.39 38.512 828.822 38.512C827.734 38.512 826.71 38.896 826.022 39.504L825.51 38.656C826.358 37.936 827.606 37.52 828.934 37.52ZM828.534 45.184C829.814 45.184 830.758 44.576 831.206 43.472V42.096H828.566C826.934 42.096 826.406 42.736 826.406 43.6C826.406 44.576 827.19 45.184 828.534 45.184ZM842.598 37.52C844.998 37.52 846.774 39.28 846.774 41.792C846.774 44.288 844.998 46.08 842.598 46.08C840.342 46.08 838.63 44.512 838.422 42.256H836.502V46H835.366V37.584H836.502V41.216H838.438C838.694 39.008 840.374 37.52 842.598 37.52ZM842.598 45.088C844.326 45.088 845.654 43.76 845.654 41.792C845.654 39.824 844.326 38.512 842.598 38.512C840.854 38.512 839.542 39.824 839.542 41.792C839.542 43.76 840.854 45.088 842.598 45.088ZM860.826 37.584V45.008H862.122V47.84H861.05V46H849.21V37.584H850.346V45.008H854.474V37.584H855.61V45.008H859.69V37.584H860.826ZM865.093 46H864.069V37.584H865.205V44.272L870.821 37.584H871.829V46H870.693V39.312L865.093 46ZM879.805 43.648L883.437 37.584H884.493V46H883.453V39.344L880.045 44.976H879.533L876.125 39.328V46H875.085V37.584H876.237L879.805 43.648ZM891.245 46.08C888.733 46.08 886.909 44.304 886.909 41.792C886.909 39.28 888.733 37.52 891.245 37.52C892.669 37.52 893.869 38.08 894.557 39.184L893.693 39.76C893.117 38.912 892.221 38.512 891.245 38.512C889.421 38.512 888.061 39.824 888.061 41.792C888.061 43.776 889.421 45.072 891.245 45.072C892.221 45.072 893.117 44.688 893.693 43.84L894.557 44.416C893.869 45.504 892.669 46.08 891.245 46.08ZM899.388 37.584H902.924V46H901.884V43.216H899.244H898.924L896.972 46H895.74L897.836 43.056C896.54 42.704 895.804 41.824 895.804 40.464C895.804 38.544 897.212 37.584 899.388 37.584ZM896.956 40.496C896.956 41.776 897.772 42.368 899.34 42.368H901.884V38.592H899.42C897.852 38.592 896.956 39.152 896.956 40.496Z" fill="black" fill-opacity="0.5"/>
<path d="M926.888 46V34.8H936.312V46H935.144V35.824H928.056V46H926.888ZM947.195 41.792C947.195 41.888 947.195 42.016 947.179 42.144H940.139C940.267 43.904 941.611 45.072 943.451 45.072C944.491 45.072 945.403 44.704 946.027 43.968L946.667 44.704C945.915 45.6 944.763 46.08 943.435 46.08C940.811 46.08 939.019 44.288 939.019 41.792C939.019 39.296 940.763 37.52 943.131 37.52C945.483 37.52 947.195 39.264 947.195 41.792ZM943.131 38.496C941.483 38.496 940.283 39.648 940.139 41.296H946.107C945.979 39.648 944.763 38.496 943.131 38.496ZM956.434 37.584V45.008H957.746V48.032H956.674V46H949.138V48.032H948.066V45.008H948.546C949.794 44.928 950.002 42.672 950.114 40.4L950.226 37.584H956.434ZM951.25 38.592L951.154 40.464C951.074 42.384 950.898 44.368 950.05 45.008H955.298V38.592H951.25ZM962.856 37.52C965.032 37.52 966.264 38.608 966.264 40.784V46H965.176V44.688C964.648 45.552 963.672 46.08 962.28 46.08C960.376 46.08 959.208 45.088 959.208 43.632C959.208 42.336 960.04 41.248 962.456 41.248H965.128V40.736C965.128 39.296 964.312 38.512 962.744 38.512C961.656 38.512 960.632 38.896 959.944 39.504L959.432 38.656C960.28 37.936 961.528 37.52 962.856 37.52ZM962.456 45.184C963.736 45.184 964.68 44.576 965.128 43.472V42.096H962.488C960.856 42.096 960.328 42.736 960.328 43.6C960.328 44.576 961.112 45.184 962.456 45.184ZM969.288 37.584H975.24V38.592H970.424V46H969.288V37.584ZM979.963 46.08C977.499 46.08 975.675 44.288 975.675 41.792C975.675 39.296 977.499 37.52 979.963 37.52C982.427 37.52 984.235 39.296 984.235 41.792C984.235 44.288 982.427 46.08 979.963 46.08ZM979.963 45.072C981.755 45.072 983.083 43.76 983.083 41.792C983.083 39.824 981.755 38.512 979.963 38.512C978.171 38.512 976.827 39.824 976.827 41.792C976.827 43.76 978.171 45.072 979.963 45.072ZM986.663 37.584H992.615V38.592H987.799V46H986.663V37.584ZM997.153 37.52C999.329 37.52 1000.56 38.608 1000.56 40.784V46H999.473V44.688C998.945 45.552 997.969 46.08 996.577 46.08C994.673 46.08 993.505 45.088 993.505 43.632C993.505 42.336 994.337 41.248 996.753 41.248H999.425V40.736C999.425 39.296 998.609 38.512 997.041 38.512C995.953 38.512 994.929 38.896 994.241 39.504L993.729 38.656C994.577 37.936 995.825 37.52 997.153 37.52ZM996.753 45.184C998.033 45.184 998.977 44.576 999.425 43.472V42.096H996.785C995.153 42.096 994.625 42.736 994.625 43.6C994.625 44.576 995.409 45.184 996.753 45.184ZM1008.3 43.648L1011.94 37.584H1012.99V46H1011.95V39.344L1008.54 44.976H1008.03L1004.62 39.328V46H1003.58V37.584H1004.74L1008.3 43.648Z" fill="black" fill-opacity="0.5"/>
<path d="M1045.08 39.792V34.8H1046.25V46H1045.08V40.832H1038.07V46H1036.89V34.8H1038.07V39.792H1045.08ZM1052.65 37.52C1054.83 37.52 1056.06 38.608 1056.06 40.784V46H1054.97V44.688C1054.44 45.552 1053.47 46.08 1052.08 46.08C1050.17 46.08 1049 45.088 1049 43.632C1049 42.336 1049.84 41.248 1052.25 41.248H1054.92V40.736C1054.92 39.296 1054.11 38.512 1052.54 38.512C1051.45 38.512 1050.43 38.896 1049.74 39.504L1049.23 38.656C1050.08 37.936 1051.32 37.52 1052.65 37.52ZM1052.25 45.184C1053.53 45.184 1054.48 44.576 1054.92 43.472V42.096H1052.28C1050.65 42.096 1050.12 42.736 1050.12 43.6C1050.12 44.576 1050.91 45.184 1052.25 45.184ZM1059.08 46V37.584H1066.64V46H1065.5V38.592H1060.22V46H1059.08ZM1074.2 37.52C1076.62 37.52 1078.41 39.248 1078.41 41.792C1078.41 44.352 1076.62 46.08 1074.2 46.08C1072.87 46.08 1071.71 45.504 1071.02 44.416V49.104H1069.88V37.584H1070.97V39.248C1071.66 38.128 1072.83 37.52 1074.2 37.52ZM1074.12 45.072C1075.91 45.072 1077.26 43.76 1077.26 41.792C1077.26 39.84 1075.91 38.512 1074.12 38.512C1072.35 38.512 1070.99 39.84 1070.99 41.792C1070.99 43.76 1072.35 45.072 1074.12 45.072ZM1083.68 37.52C1085.86 37.52 1087.09 38.608 1087.09 40.784V46H1086V44.688C1085.48 45.552 1084.5 46.08 1083.11 46.08C1081.2 46.08 1080.04 45.088 1080.04 43.632C1080.04 42.336 1080.87 41.248 1083.28 41.248H1085.96V40.736C1085.96 39.296 1085.14 38.512 1083.57 38.512C1082.48 38.512 1081.46 38.896 1080.77 39.504L1080.26 38.656C1081.11 37.936 1082.36 37.52 1083.68 37.52ZM1083.28 45.184C1084.56 45.184 1085.51 44.576 1085.96 43.472V42.096H1083.32C1081.68 42.096 1081.16 42.736 1081.16 43.6C1081.16 44.576 1081.94 45.184 1083.28 45.184ZM1095.48 41.648C1096.64 41.92 1097.19 42.608 1097.19 43.712C1097.19 45.168 1096.13 46 1093.94 46H1090.12V37.584H1093.83C1095.73 37.584 1096.9 38.352 1096.9 39.744C1096.9 40.688 1096.36 41.328 1095.48 41.648ZM1093.75 38.48H1091.22V41.328H1093.75C1095.04 41.328 1095.76 40.832 1095.76 39.888C1095.76 38.944 1095.04 38.48 1093.75 38.48ZM1091.22 45.104H1093.89C1095.32 45.104 1096.07 44.656 1096.07 43.648C1096.07 42.64 1095.43 42.176 1094 42.176H1091.22V45.104ZM1100.43 40.592L1100.57 37.584H1106.73V46H1105.59V38.592H1101.56L1101.45 40.672C1101.31 43.616 1100.94 46.096 1099.13 46.096C1098.87 46.096 1098.62 46.048 1098.31 45.984L1098.39 45.008C1098.54 45.04 1098.68 45.056 1098.79 45.056C1100.19 45.056 1100.31 42.816 1100.43 40.592ZM1117.34 41.792C1117.34 41.888 1117.34 42.016 1117.32 42.144H1110.28C1110.41 43.904 1111.75 45.072 1113.59 45.072C1114.63 45.072 1115.54 44.704 1116.17 43.968L1116.81 44.704C1116.06 45.6 1114.9 46.08 1113.58 46.08C1110.95 46.08 1109.16 44.288 1109.16 41.792C1109.16 39.296 1110.9 37.52 1113.27 37.52C1115.62 37.52 1117.34 39.264 1117.34 41.792ZM1113.27 38.496C1111.62 38.496 1110.42 39.648 1110.28 41.296H1116.25C1116.12 39.648 1114.9 38.496 1113.27 38.496ZM1120.99 46H1119.85V37.584H1120.99V41.312H1126.28V37.584H1127.42V46H1126.28V42.288H1120.99V46ZM1131.67 46H1130.65V37.584H1131.78V44.272L1137.4 37.584H1138.41V46H1137.27V39.312L1131.67 46ZM1144.59 37.584H1148.13V46H1147.09V43.216H1144.45H1144.13L1142.17 46H1140.94L1143.04 43.056C1141.74 42.704 1141.01 41.824 1141.01 40.464C1141.01 38.544 1142.41 37.584 1144.59 37.584ZM1142.16 40.496C1142.16 41.776 1142.97 42.368 1144.54 42.368H1147.09V38.592H1144.62C1143.05 38.592 1142.16 39.152 1142.16 40.496ZM1162.45 37.584V45.008H1163.76V48.032H1162.69V46H1155.15V48.032H1154.08V45.008H1154.56C1155.81 44.928 1156.02 42.672 1156.13 40.4L1156.24 37.584H1162.45ZM1157.27 38.592L1157.17 40.464C1157.09 42.384 1156.91 44.368 1156.07 45.008H1161.31V38.592H1157.27ZM1173.35 41.792C1173.35 41.888 1173.35 42.016 1173.34 42.144H1166.3C1166.42 43.904 1167.77 45.072 1169.61 45.072C1170.65 45.072 1171.56 44.704 1172.18 43.968L1172.82 44.704C1172.07 45.6 1170.92 46.08 1169.59 46.08C1166.97 46.08 1165.18 44.288 1165.18 41.792C1165.18 39.296 1166.92 37.52 1169.29 37.52C1171.64 37.52 1173.35 39.264 1173.35 41.792ZM1169.29 38.496C1167.64 38.496 1166.44 39.648 1166.3 41.296H1172.26C1172.14 39.648 1170.92 38.496 1169.29 38.496ZM1178.56 37.584H1182.1V46H1181.06V43.216H1178.42H1178.1L1176.14 46H1174.91L1177.01 43.056C1175.71 42.704 1174.98 41.824 1174.98 40.464C1174.98 38.544 1176.38 37.584 1178.56 37.584ZM1176.13 40.496C1176.13 41.776 1176.94 42.368 1178.51 42.368H1181.06V38.592H1178.59C1177.02 38.592 1176.13 39.152 1176.13 40.496ZM1183.75 37.584H1191.25V38.592H1188.07V46H1186.93V38.592H1183.75V37.584ZM1199.88 41.792C1199.88 41.888 1199.88 42.016 1199.87 42.144H1192.83C1192.95 43.904 1194.3 45.072 1196.14 45.072C1197.18 45.072 1198.09 44.704 1198.71 43.968L1199.35 44.704C1198.6 45.6 1197.45 46.08 1196.12 46.08C1193.5 46.08 1191.71 44.288 1191.71 41.792C1191.71 39.296 1193.45 37.52 1195.82 37.52C1198.17 37.52 1199.88 39.264 1199.88 41.792ZM1195.82 38.496C1194.17 38.496 1192.97 39.648 1192.83 41.296H1198.79C1198.67 39.648 1197.45 38.496 1195.82 38.496ZM1202.8 40.592L1202.95 37.584H1209.11V46H1207.97V38.592H1203.94L1203.83 40.672C1203.68 43.616 1203.31 46.096 1201.51 46.096C1201.25 46.096 1200.99 46.048 1200.69 45.984L1200.77 45.008C1200.91 45.04 1201.06 45.056 1201.17 45.056C1202.56 45.056 1202.69 42.816 1202.8 40.592ZM1213.47 40.528L1215.95 40.56C1218.06 40.576 1219.18 41.52 1219.18 43.248C1219.18 45.04 1217.97 46.048 1215.73 46.016L1212.33 46V37.584H1213.47V40.528ZM1213.47 45.12L1215.66 45.152C1217.21 45.168 1218.03 44.512 1218.03 43.248C1218.03 42 1217.23 41.424 1215.66 41.408L1213.47 41.376V45.12ZM1222.49 46H1221.35V37.584H1222.49V41.312H1227.78V37.584H1228.92V46H1227.78V42.288H1222.49V46ZM1235.62 46.08C1233.16 46.08 1231.33 44.288 1231.33 41.792C1231.33 39.296 1233.16 37.52 1235.62 37.52C1238.08 37.52 1239.89 39.296 1239.89 41.792C1239.89 44.288 1238.08 46.08 1235.62 46.08ZM1235.62 45.072C1237.41 45.072 1238.74 43.76 1238.74 41.792C1238.74 39.824 1237.41 38.512 1235.62 38.512C1233.83 38.512 1232.48 39.824 1232.48 41.792C1232.48 43.76 1233.83 45.072 1235.62 45.072ZM1245.84 46.08C1243.33 46.08 1241.5 44.304 1241.5 41.792C1241.5 39.28 1243.33 37.52 1245.84 37.52C1247.26 37.52 1248.46 38.08 1249.15 39.184L1248.29 39.76C1247.71 38.912 1246.82 38.512 1245.84 38.512C1244.02 38.512 1242.66 39.824 1242.66 41.792C1242.66 43.776 1244.02 45.072 1245.84 45.072C1246.82 45.072 1247.71 44.688 1248.29 43.84L1249.15 44.416C1248.46 45.504 1247.26 46.08 1245.84 46.08ZM1249.59 37.584H1257.1V38.592H1253.91V46H1252.78V38.592H1249.59V37.584ZM1259.77 46H1258.74V37.584H1259.88V44.272L1265.49 37.584H1266.5V46H1265.37V39.312L1259.77 46Z" fill="black" fill-opacity="0.5"/>
<path d="M1299.91 46H1298.55L1294.6 40.864H1292.04V46H1290.89V34.8H1292.04V39.824H1294.6L1298.39 34.8H1299.67L1295.51 40.24L1299.91 46ZM1304.84 46.08C1302.37 46.08 1300.55 44.288 1300.55 41.792C1300.55 39.296 1302.37 37.52 1304.84 37.52C1307.3 37.52 1309.11 39.296 1309.11 41.792C1309.11 44.288 1307.3 46.08 1304.84 46.08ZM1304.84 45.072C1306.63 45.072 1307.96 43.76 1307.96 41.792C1307.96 39.824 1306.63 38.512 1304.84 38.512C1303.05 38.512 1301.7 39.824 1301.7 41.792C1301.7 43.76 1303.05 45.072 1304.84 45.072ZM1312.67 46H1311.54V37.584H1312.67V41.312H1317.97V37.584H1319.11V46H1317.97V42.288H1312.67V46ZM1320.75 37.584H1328.25V38.592H1325.07V46H1323.93V38.592H1320.75V37.584ZM1332.79 37.52C1334.97 37.52 1336.2 38.608 1336.2 40.784V46H1335.11V44.688C1334.59 45.552 1333.61 46.08 1332.22 46.08C1330.31 46.08 1329.15 45.088 1329.15 43.632C1329.15 42.336 1329.98 41.248 1332.39 41.248H1335.07V40.736C1335.07 39.296 1334.25 38.512 1332.68 38.512C1331.59 38.512 1330.57 38.896 1329.88 39.504L1329.37 38.656C1330.22 37.936 1331.47 37.52 1332.79 37.52ZM1332.39 45.184C1333.67 45.184 1334.62 44.576 1335.07 43.472V42.096H1332.43C1330.79 42.096 1330.27 42.736 1330.27 43.6C1330.27 44.576 1331.05 45.184 1332.39 45.184ZM1346.73 46H1345.39L1342.28 42.256H1340.36V46H1339.23V37.584H1340.36V41.28H1342.3L1345.26 37.584H1346.49L1343.18 41.664L1346.73 46ZM1346.77 37.584H1354.27V38.592H1351.09V46H1349.95V38.592H1346.77V37.584ZM1357.05 40.528L1359.45 40.56C1361.56 40.576 1362.7 41.52 1362.7 43.248C1362.7 45.04 1361.46 46.048 1359.24 46.016L1355.91 46V37.584H1357.05V40.528ZM1365.24 46H1364.1V37.584H1365.24V46ZM1357.05 45.12L1359.18 45.152C1360.73 45.168 1361.54 44.512 1361.54 43.248C1361.54 42 1360.74 41.424 1359.18 41.408L1357.05 41.376V45.12Z" fill="black" fill-opacity="0.5"/>
<rect x="1574" y="13.5" width="136" height="54" rx="10" fill="#0449FC"/>
<path d="M1606.6 46V34.8H1611.42C1612.64 34.8 1613.59 35.0453 1614.28 35.536C1614.98 36.0267 1615.32 36.7413 1615.32 37.68C1615.32 38.5973 1614.99 39.3013 1614.33 39.792C1613.67 40.272 1612.8 40.512 1611.72 40.512L1612.01 40.032C1613.26 40.032 1614.21 40.2827 1614.88 40.784C1615.55 41.2747 1615.88 41.9947 1615.88 42.944C1615.88 43.904 1615.53 44.656 1614.83 45.2C1614.13 45.7333 1613.1 46 1611.72 46H1606.6ZM1608.19 44.736H1611.69C1612.54 44.736 1613.18 44.5813 1613.61 44.272C1614.05 43.952 1614.27 43.4667 1614.27 42.816C1614.27 42.1653 1614.05 41.6907 1613.61 41.392C1613.18 41.0933 1612.54 40.944 1611.69 40.944H1608.19V44.736ZM1608.19 39.728H1611.31C1612.09 39.728 1612.68 39.5733 1613.08 39.264C1613.5 38.9547 1613.71 38.5013 1613.71 37.904C1613.71 37.296 1613.5 36.8373 1613.08 36.528C1612.68 36.2187 1612.09 36.064 1611.31 36.064H1608.19V39.728ZM1616.96 46L1620.6 41.264L1620.59 42.048L1617.12 37.52H1618.83L1621.48 41.008H1620.83L1623.48 37.52H1625.16L1621.64 42.08L1621.66 41.264L1625.34 46H1623.6L1620.8 42.288L1621.42 42.384L1618.67 46H1616.96ZM1630.31 46.096C1629.45 46.096 1628.7 45.9093 1628.04 45.536C1627.37 45.1627 1626.85 44.6507 1626.47 44C1626.08 43.3387 1625.89 42.592 1625.89 41.76C1625.89 40.9173 1626.08 40.1707 1626.47 39.52C1626.85 38.8693 1627.37 38.3627 1628.04 38C1628.7 37.6267 1629.45 37.44 1630.31 37.44C1631.15 37.44 1631.9 37.6267 1632.56 38C1633.24 38.3627 1633.76 38.8693 1634.13 39.52C1634.52 40.16 1634.71 40.9067 1634.71 41.76C1634.71 42.6027 1634.52 43.3493 1634.13 44C1633.76 44.6507 1633.24 45.1627 1632.56 45.536C1631.9 45.9093 1631.15 46.096 1630.31 46.096ZM1630.31 44.752C1630.85 44.752 1631.34 44.6293 1631.76 44.384C1632.2 44.1387 1632.54 43.792 1632.79 43.344C1633.03 42.8853 1633.16 42.3573 1633.16 41.76C1633.16 41.152 1633.03 40.6293 1632.79 40.192C1632.54 39.744 1632.2 39.3973 1631.76 39.152C1631.34 38.9067 1630.85 38.784 1630.31 38.784C1629.76 38.784 1629.28 38.9067 1628.85 39.152C1628.42 39.3973 1628.08 39.744 1627.83 40.192C1627.57 40.6293 1627.44 41.152 1627.44 41.76C1627.44 42.3573 1627.57 42.8853 1627.83 43.344C1628.08 43.792 1628.42 44.1387 1628.85 44.384C1629.28 44.6293 1629.76 44.752 1630.31 44.752ZM1642.66 45.28V38.864H1638.98L1638.9 40.496C1638.87 41.0293 1638.84 41.5467 1638.78 42.048C1638.74 42.5387 1638.67 42.992 1638.56 43.408C1638.46 43.824 1638.32 44.1653 1638.13 44.432C1637.94 44.6987 1637.68 44.864 1637.36 44.928L1635.84 44.656C1636.17 44.6667 1636.44 44.56 1636.64 44.336C1636.84 44.1013 1637 43.7813 1637.1 43.376C1637.22 42.9707 1637.31 42.512 1637.36 42C1637.41 41.4773 1637.46 40.9387 1637.49 40.384L1637.62 37.52H1644.19V45.28H1642.66ZM1635.5 47.968V44.656H1645.49V47.968H1644.05V46H1636.96V47.968H1635.5Z" fill="#F8F8F8"/>
<path d="M1676 49.5V47.5C1676 46.4391 1675.58 45.4217 1674.83 44.6716C1674.08 43.9214 1673.06 43.5 1672 43.5H1664C1662.94 43.5 1661.92 43.9214 1661.17 44.6716C1660.42 45.4217 1660 46.4391 1660 47.5V49.5" stroke="#F8F8F8" stroke-width="1.5" stroke-linecap="round" stroke-linejoin="round"/>
<path d="M1668 39.5C1670.21 39.5 1672 37.7091 1672 35.5C1672 33.2909 1670.21 31.5 1668 31.5C1665.79 31.5 1664 33.2909 1664 35.5C1664 37.7091 1665.79 39.5 1668 39.5Z" stroke="#F8F8F8" stroke-width="1.5" stroke-linecap="round" stroke-linejoin="round"/>
<g clip-path="url(#clip0_74_19)">
<path d="M231.429 40.4758C227.874 40.4758 224.956 37.5748 224.956 33.9653C224.956 30.3896 227.84 27.4548 231.429 27.4548C234.984 27.4548 237.902 30.3558 237.902 33.9653C237.902 37.541 234.984 40.4758 231.429 40.4758ZM231.429 29.8498C229.182 29.8498 227.337 31.7052 227.337 33.9653C227.337 36.2254 229.182 38.0808 231.429 38.0808C233.676 38.0808 235.521 36.2254 235.521 33.9653C235.521 31.7052 233.676 29.8498 231.429 29.8498ZM231.429 49.4826H231.261C230.087 49.4826 229.081 49.3477 229.014 49.3477C228.477 49.2802 228.075 48.8754 227.974 48.3357L227.639 45.9069C226.901 45.6707 226.197 45.3671 225.526 44.9961L223.647 46.4466C223.211 46.7839 222.641 46.7502 222.205 46.4466C222.172 46.4129 221.367 45.7719 220.528 44.9623L220.394 44.8274C219.556 43.9841 218.952 43.1745 218.918 43.1407C218.583 42.7022 218.583 42.1287 218.918 41.6902L220.394 39.7337C220.025 39.059 219.757 38.3169 219.522 37.5748L217.174 37.2374C216.638 37.17 216.235 36.7314 216.168 36.1917C216.134 36.158 216 35.146 216 33.9653V33.7966C216 32.616 216.134 31.604 216.134 31.5365C216.201 30.9968 216.604 30.592 217.141 30.4908L219.556 30.1534C219.79 29.4113 220.092 28.7029 220.461 28.0282L219.019 26.1392C218.683 25.7006 218.717 25.1272 219.019 24.6886C219.052 24.6549 219.69 23.8453 220.495 23.002L220.629 22.8671C221.467 22.0237 222.272 21.4165 222.306 21.3828C222.742 21.0455 223.312 21.0455 223.748 21.3828L225.693 22.8671C226.364 22.496 227.102 22.2261 227.84 21.99L228.175 19.6287C228.242 19.0889 228.678 18.6841 229.215 18.6167C229.249 18.5829 230.255 18.448 231.429 18.448H231.596C232.77 18.448 233.777 18.5829 233.844 18.5829C234.38 18.6504 234.783 19.0552 234.883 19.5949L235.219 22.0237C235.957 22.2599 236.661 22.5635 237.332 22.9345L239.21 21.484C239.646 21.1467 240.216 21.1804 240.652 21.484C240.686 21.5177 241.491 22.1587 242.329 22.9683L242.464 23.1032C243.302 23.9465 243.906 24.7561 243.939 24.7898C244.275 25.2284 244.275 25.8018 243.939 26.2404L242.497 28.1969C242.866 28.8716 243.134 29.6137 243.369 30.3558L245.717 30.6932C246.254 30.7606 246.656 31.1992 246.723 31.7389C246.723 31.7726 246.857 32.8184 246.857 33.999V34.1677C246.857 35.3484 246.723 36.3604 246.723 36.4278C246.656 36.9676 246.254 37.3724 245.717 37.4736L243.302 37.8109C243.067 38.553 242.765 39.2614 242.396 39.9361L243.839 41.8589C244.174 42.2974 244.141 42.8709 243.839 43.3094C243.805 43.3431 243.168 44.1527 242.363 44.9961L242.229 45.131C241.39 45.9743 240.585 46.5815 240.552 46.6153C240.116 46.9526 239.546 46.9526 239.11 46.6153L237.164 45.0973C236.493 45.4683 235.755 45.7382 235.018 45.9743L234.682 48.3357C234.615 48.8754 234.179 49.2802 233.642 49.3477C233.609 49.3477 232.603 49.4826 231.429 49.4826ZM230.221 47.0538C230.523 47.0875 230.892 47.0875 231.261 47.0875H231.429C231.798 47.0875 232.167 47.0875 232.469 47.0538L232.77 44.8274C232.837 44.3214 233.206 43.9503 233.676 43.8154C234.716 43.5793 235.722 43.1745 236.628 42.601C236.896 42.4323 237.231 42.3986 237.533 42.4661C237.701 42.4998 237.869 42.601 238.003 42.7022L239.78 44.0515C240.015 43.8491 240.283 43.613 240.552 43.3431L240.686 43.2082C240.954 42.9383 241.189 42.6685 241.39 42.4323L240.049 40.6445C239.747 40.2397 239.747 39.6999 239.982 39.2951C240.552 38.4181 240.954 37.4398 241.189 36.4278C241.29 35.9218 241.692 35.517 242.195 35.4496L244.442 35.146C244.476 34.8424 244.476 34.4713 244.476 34.1002V33.9653C244.476 33.5942 244.476 33.2232 244.442 32.9196L242.229 32.616C241.759 32.5485 241.357 32.1774 241.223 31.7052C240.988 30.6594 240.585 29.6812 240.049 28.7704C239.982 28.7029 239.948 28.6017 239.914 28.5005C239.78 28.1294 239.847 27.6909 240.082 27.3873L241.457 25.5657C241.256 25.3296 241.021 25.0597 240.753 24.7898L240.619 24.6549C240.351 24.3851 240.082 24.1489 239.847 23.9465L238.07 25.2958C237.634 25.5994 237.064 25.5994 236.661 25.2958C235.789 24.7561 234.816 24.3513 233.81 24.0815C233.341 23.9803 232.972 23.5755 232.905 23.0695L232.603 20.8093C232.301 20.7756 231.932 20.7756 231.563 20.7756H231.429C231.06 20.7756 230.691 20.7756 230.389 20.8093L230.087 23.1032C230.02 23.6429 229.618 24.0477 229.081 24.1152C228.075 24.3513 227.102 24.7561 226.23 25.2958C225.962 25.4645 225.626 25.4982 225.324 25.4308C225.157 25.397 224.989 25.2958 224.855 25.1946L223.111 23.8453C222.876 24.0477 222.608 24.2839 222.339 24.5537L222.205 24.6886C221.937 24.9585 221.702 25.2284 221.501 25.4645L222.842 27.2524C223.144 27.6572 223.144 28.1632 222.91 28.6017C222.876 28.6354 222.876 28.6692 222.842 28.7029C222.306 29.58 221.903 30.5582 221.669 31.5702C221.568 32.0425 221.165 32.4136 220.662 32.481L218.415 32.7846C218.382 33.0882 218.382 33.4593 218.382 33.8304V33.9653C218.382 34.3364 218.382 34.7074 218.415 35.011L220.629 35.3146C221.165 35.3821 221.568 35.7869 221.635 36.3266V36.3604C221.87 37.3724 222.272 38.3169 222.809 39.1939C222.977 39.4975 223.044 39.8686 222.91 40.2059C222.876 40.3409 222.775 40.4758 222.675 40.6107L221.367 42.3649C221.568 42.601 221.803 42.8709 222.071 43.1407L222.205 43.2757C222.474 43.5455 222.742 43.7817 222.977 43.9841L224.754 42.6347C225.19 42.2974 225.828 42.3311 226.23 42.6685C227.102 43.2082 228.041 43.5793 229.014 43.8491C229.483 43.9503 229.852 44.3551 229.919 44.8611L230.221 47.0538Z" fill="url(#paint0_linear_74_19)"/>
</g>
<g clip-path="url(#clip1_74_19)">
<path d="M219.429 59.4956C217.256 59.4956 215.473 57.7228 215.473 55.517C215.473 53.3318 217.235 51.5383 219.429 51.5383C221.601 51.5383 223.384 53.3112 223.384 55.517C223.384 57.7021 221.601 59.4956 219.429 59.4956ZM219.429 53.002C218.055 53.002 216.928 54.1358 216.928 55.517C216.928 56.8982 218.055 58.032 219.429 58.032C220.802 58.032 221.929 56.8982 221.929 55.517C221.929 54.1358 220.802 53.002 219.429 53.002ZM219.429 64.9998H219.326C218.609 64.9998 217.994 64.9173 217.953 64.9173C217.625 64.8761 217.379 64.6287 217.317 64.2989L217.112 62.8146C216.661 62.6703 216.231 62.4848 215.821 62.258L214.673 63.1444C214.407 63.3506 214.058 63.33 213.792 63.1444C213.771 63.1238 213.279 62.7321 212.767 62.2374L212.685 62.1549C212.173 61.6396 211.804 61.1448 211.783 61.1242C211.578 60.8562 211.578 60.5057 211.783 60.2378L212.685 59.0421C212.46 58.6298 212.296 58.1763 212.152 57.7228L210.717 57.5166C210.389 57.4754 210.143 57.2074 210.102 56.8775C210.082 56.8569 210 56.2385 210 55.517V55.4139C210 54.6924 210.082 54.0739 210.082 54.0327C210.123 53.7029 210.369 53.4555 210.697 53.3937L212.173 53.1875C212.316 52.734 212.501 52.3011 212.726 51.8888L211.845 50.7343C211.64 50.4664 211.66 50.1159 211.845 49.8479C211.865 49.8273 212.255 49.3325 212.747 48.8172L212.829 48.7347C213.341 48.2193 213.833 47.8483 213.853 47.8277C214.12 47.6215 214.468 47.6215 214.735 47.8277L215.924 48.7347C216.334 48.508 216.784 48.343 217.235 48.1987L217.44 46.7557C217.481 46.4259 217.748 46.1785 218.076 46.1373C218.096 46.1166 218.711 46.0342 219.429 46.0342H219.531C220.248 46.0342 220.863 46.1166 220.904 46.1166C221.232 46.1579 221.478 46.4052 221.54 46.7351L221.745 48.2193C222.196 48.3636 222.626 48.5492 223.036 48.7759L224.184 47.8895C224.45 47.6834 224.799 47.704 225.065 47.8895C225.086 47.9101 225.578 48.3018 226.09 48.7966L226.172 48.879C226.684 49.3944 227.053 49.8891 227.074 49.9098C227.279 50.1777 227.279 50.5282 227.074 50.7962L226.193 51.9918C226.418 52.4041 226.582 52.8577 226.725 53.3112L228.16 53.5173C228.488 53.5586 228.734 53.8266 228.775 54.1564C228.775 54.177 228.857 54.8161 228.857 55.5376V55.6407C228.857 56.3622 228.775 56.9806 228.775 57.0218C228.734 57.3517 228.488 57.5991 228.16 57.6609L226.684 57.8671C226.541 58.3206 226.356 58.7535 226.131 59.1658L227.012 60.3408C227.217 60.6088 227.197 60.9593 227.012 61.2273C226.992 61.2479 226.602 61.7426 226.111 62.258L226.029 62.3405C225.516 62.8558 225.024 63.2269 225.004 63.2475C224.737 63.4537 224.389 63.4537 224.122 63.2475L222.934 62.3198C222.524 62.5466 222.073 62.7115 221.622 62.8558L221.417 64.2989C221.376 64.6287 221.109 64.8761 220.781 64.9173C220.761 64.9173 220.146 64.9998 219.429 64.9998ZM218.691 63.5155C218.875 63.5361 219.101 63.5361 219.326 63.5361H219.429C219.654 63.5361 219.879 63.5361 220.064 63.5155L220.248 62.1549C220.289 61.8457 220.515 61.6189 220.802 61.5365C221.437 61.3922 222.052 61.1448 222.606 60.7943C222.77 60.6913 222.975 60.6707 223.159 60.7119C223.261 60.7325 223.364 60.7944 223.446 60.8562L224.532 61.6808C224.676 61.5571 224.84 61.4128 225.004 61.2479L225.086 61.1654C225.25 61.0005 225.393 60.8356 225.516 60.6913L224.696 59.5987C224.512 59.3513 224.512 59.0215 224.655 58.7741C225.004 58.2381 225.25 57.6403 225.393 57.0218C225.455 56.7126 225.701 56.4653 226.008 56.424L227.381 56.2385C227.402 56.053 227.402 55.8262 227.402 55.5994V55.517C227.402 55.2902 227.402 55.0634 227.381 54.8779L226.029 54.6924C225.742 54.6512 225.496 54.4244 225.414 54.1358C225.27 53.4967 225.024 52.8989 224.696 52.3423C224.655 52.3011 224.635 52.2392 224.614 52.1774C224.532 51.9506 224.573 51.6826 224.717 51.4971L225.557 50.3839C225.434 50.2396 225.291 50.0747 225.127 49.9098L225.045 49.8273C224.881 49.6624 224.717 49.5181 224.573 49.3944L223.487 50.219C223.22 50.4045 222.872 50.4045 222.626 50.219C222.093 49.8891 221.499 49.6418 220.884 49.4768C220.597 49.415 220.371 49.1676 220.33 48.8584L220.146 47.4772C219.961 47.4566 219.736 47.4566 219.511 47.4566H219.429C219.203 47.4566 218.978 47.4566 218.793 47.4772L218.609 48.879C218.568 49.2089 218.322 49.4562 217.994 49.4975C217.379 49.6418 216.784 49.8891 216.252 50.219C216.088 50.3221 215.883 50.3427 215.698 50.3014C215.596 50.2808 215.493 50.219 215.411 50.1571L214.345 49.3325C214.202 49.4562 214.038 49.6005 213.874 49.7655L213.792 49.8479C213.628 50.0128 213.484 50.1777 213.361 50.3221L214.181 51.4146C214.366 51.662 214.366 51.9712 214.222 52.2392C214.202 52.2598 214.202 52.2805 214.181 52.3011C213.853 52.8371 213.607 53.4349 213.464 54.0533C213.402 54.3419 213.157 54.5687 212.849 54.6099L211.476 54.7955C211.455 54.981 211.455 55.2077 211.455 55.4345V55.517C211.455 55.7437 211.455 55.9705 211.476 56.156L212.829 56.3416C213.157 56.3828 213.402 56.6302 213.443 56.96V56.9806C213.587 57.5991 213.833 58.1763 214.161 58.7123C214.263 58.8978 214.304 59.1246 214.222 59.3307C214.202 59.4132 214.14 59.4956 214.079 59.5781L213.279 60.65C213.402 60.7944 213.546 60.9593 213.71 61.1242L213.792 61.2066C213.956 61.3716 214.12 61.5159 214.263 61.6396L215.35 60.815C215.616 60.6088 216.006 60.6294 216.252 60.8356C216.784 61.1654 217.358 61.3922 217.953 61.5571C218.24 61.6189 218.465 61.8663 218.506 62.1755L218.691 63.5155Z" fill="url(#paint1_linear_74_19)"/>
</g>
<path d="M236.19 58.5033C234.794 59.0028 233.246 58.2739 232.745 56.857C232.248 55.4533 232.973 53.896 234.382 53.3918C235.777 52.8924 237.326 53.6213 237.827 55.0382C238.324 56.4419 237.586 58.0039 236.19 58.5033ZM234.714 54.332C233.832 54.6477 233.366 55.6352 233.68 56.5224C233.993 57.4097 234.975 57.8788 235.857 57.5631C236.74 57.2474 237.206 56.26 236.892 55.3727C236.578 54.4855 235.596 54.0163 234.714 54.332ZM237.441 62.039L237.375 62.0625C236.914 62.2275 236.501 62.3159 236.474 62.3253C236.254 62.3742 236.04 62.2718 235.926 62.0741L235.457 61.1678C235.134 61.1787 234.815 61.1585 234.501 61.1071L233.965 61.9404C233.84 62.134 233.612 62.2009 233.399 62.143C233.381 62.1344 232.976 61.9959 232.534 61.7959L232.463 61.7618C232.016 61.5485 231.667 61.3155 231.649 61.307C231.457 61.182 231.377 60.9569 231.448 60.7376L231.755 59.7622C231.517 59.5492 231.308 59.2956 231.113 59.0372L230.145 59.2347C229.925 59.2836 229.706 59.168 229.604 58.9655C229.587 58.957 229.393 58.5786 229.229 58.1151L229.206 58.0489C229.042 57.5854 228.954 57.1693 228.945 57.1428C228.896 56.9215 228.998 56.7061 229.194 56.5909L230.096 56.1193C230.085 55.7949 230.105 55.4744 230.156 55.1578L229.327 54.6188C229.135 54.4938 229.068 54.264 229.126 54.0494C229.134 54.0315 229.272 53.6241 229.471 53.18L229.505 53.1082C229.717 52.6593 229.949 52.3079 229.957 52.2899C230.081 52.0962 230.305 52.0161 230.523 52.0873L231.493 52.3967C231.705 52.1568 231.957 51.9472 232.214 51.7508L232.018 50.7767C231.969 50.5554 232.084 50.3353 232.285 50.2334C232.294 50.2154 232.67 50.0211 233.131 49.8562L233.197 49.8326C233.657 49.6677 234.071 49.5793 234.098 49.5699C234.318 49.521 234.532 49.6234 234.646 49.8211L235.115 50.7274C235.438 50.7164 235.756 50.7367 236.071 50.7881L236.607 49.9548C236.731 49.7611 236.96 49.6943 237.173 49.7522C237.191 49.7607 237.596 49.8992 238.038 50.0993L238.109 50.1334C238.555 50.3466 238.905 50.5796 238.923 50.5882C239.115 50.7132 239.195 50.9383 239.124 51.1576L238.83 52.1282C239.068 52.3412 239.277 52.5949 239.472 52.8532L240.44 52.6558C240.66 52.6069 240.879 52.7225 240.981 52.925C240.985 52.9382 241.183 53.3299 241.347 53.7933L241.371 53.8595C241.535 54.323 241.622 54.7391 241.632 54.7656C241.68 54.9869 241.579 55.2024 241.382 55.3175L240.481 55.7892C240.492 56.1135 240.472 56.434 240.421 56.7506L241.254 57.3028C241.446 57.4279 241.513 57.6577 241.455 57.8722C241.447 57.8902 241.309 58.2975 241.11 58.7417L241.076 58.8135C240.864 59.2624 240.633 59.6138 240.624 59.6318C240.5 59.8254 240.276 59.9055 240.058 59.8344L239.083 59.5118C238.872 59.7517 238.619 59.9613 238.363 60.1576L238.559 61.1317C238.607 61.353 238.493 61.5732 238.291 61.675C238.278 61.6797 237.902 61.8741 237.441 62.039ZM236.63 61.2552C236.753 61.226 236.898 61.1742 237.043 61.1224L237.108 61.0988C237.253 61.047 237.398 60.9951 237.512 60.9395L237.321 60.0231C237.277 59.815 237.37 59.6175 237.536 59.4986C237.911 59.2598 238.25 58.9596 238.526 58.6072C238.608 58.5033 238.735 58.443 238.863 58.427C238.933 58.4167 239.013 58.4329 239.08 58.4538L239.965 58.7337C240.029 58.6213 240.102 58.4909 240.17 58.3473L240.204 58.2754C240.271 58.1318 240.326 57.9929 240.372 57.8719L239.597 57.3586C239.423 57.2421 239.348 57.0302 239.384 56.8383C239.486 56.4139 239.508 55.9733 239.459 55.5431C239.429 55.3303 239.53 55.1149 239.718 55.0177L240.558 54.5828C240.529 54.4589 240.478 54.3133 240.426 54.1676L240.408 54.1146C240.356 53.969 240.305 53.8233 240.249 53.7088L239.338 53.9007C239.144 53.9401 238.935 53.851 238.817 53.6845C238.579 53.3069 238.285 52.9795 237.948 52.6973C237.912 52.6803 237.885 52.6452 237.858 52.6102C237.754 52.4834 237.719 52.3018 237.769 52.1497L238.056 51.2414C237.944 51.177 237.815 51.104 237.672 51.0358L237.6 51.0017C237.458 50.9334 237.319 50.8784 237.199 50.832L236.689 51.6114C236.56 51.7918 236.336 51.8719 236.136 51.8093C235.719 51.7199 235.28 51.6977 234.848 51.7331C234.65 51.7593 234.449 51.6522 234.352 51.463L233.92 50.6182C233.796 50.6474 233.652 50.6992 233.507 50.751L233.454 50.7699C233.309 50.8217 233.164 50.8736 233.051 50.9292L233.251 51.8721C233.299 52.0934 233.198 52.3088 232.996 52.4107C232.634 52.6448 232.308 52.9403 232.041 53.2747C231.959 53.3786 231.832 53.439 231.704 53.4549C231.634 53.4652 231.554 53.449 231.487 53.4282L230.615 53.1435C230.551 53.2559 230.479 53.3863 230.411 53.53L230.377 53.6018C230.309 53.7454 230.254 53.8843 230.208 54.0053L230.983 54.5187C231.158 54.6352 231.228 54.8338 231.197 55.0389C231.188 55.0569 231.193 55.0701 231.184 55.0881C231.096 55.5078 231.073 55.9483 231.122 56.3786C231.148 56.5781 231.041 56.7803 230.853 56.8775L230.013 57.3123C230.042 57.4362 230.094 57.5819 230.145 57.7276L230.164 57.7805C230.216 57.9262 230.267 58.0719 230.323 58.1863L231.234 57.9945C231.454 57.9456 231.668 58.048 231.769 58.2504L231.774 58.2637C232.007 58.628 232.296 58.9422 232.628 59.2111C232.736 59.3067 232.814 59.443 232.808 59.5942C232.814 59.6519 232.793 59.719 232.772 59.7861L232.503 60.6585C232.614 60.7229 232.744 60.7958 232.887 60.8641L232.958 60.8982C233.101 60.9665 233.239 61.0215 233.359 61.0679L233.87 60.2885C233.994 60.0948 234.249 60.0185 234.454 60.0944C234.871 60.1838 235.291 60.1975 235.711 60.1668C235.909 60.1406 236.11 60.2476 236.207 60.4368L236.63 61.2552Z" fill="url(#paint2_linear_74_19)"/>
<path d="M246.674 38.447L252.209 32.126L264.355 42.8838C267.249 45.4476 267.531 49.8843 264.984 52.7935C264.474 53.3753 263.592 53.4313 263.013 52.9185L246.674 38.447Z" fill="#1E1E1E"/>
<path d="M242.927 44.407L236.69 38.7869L253.224 20.2245C255.794 17.339 260.204 17.0967 263.075 19.6833C263.649 20.2006 263.698 21.0878 263.184 21.6649L242.927 44.407Z" fill="url(#paint3_linear_74_19)"/>
<path d="M292.607 23.8245L286.654 17.9297L272.859 32.0218C276.147 35.2774 281.436 35.2362 284.673 31.9298L292.607 23.8245Z" fill="url(#paint4_linear_74_19)"/>
<path d="M265.751 23.343L272.247 18.0261L283.979 32.5234C280.392 35.4598 275.12 34.919 272.203 31.3154L265.751 23.343Z" fill="url(#paint5_linear_74_19)"/>
<path d="M236.571 18.553H244.946V46.8443C244.946 50.6986 241.821 53.8231 237.967 53.8231C237.196 53.8231 236.571 53.1982 236.571 52.4273V18.553Z" fill="#1E1E1E"/>
<path d="M263.92 18.0261H272.294V44.9217C272.294 49.5468 268.545 53.2962 263.92 53.2962V18.0261Z" fill="#1E1E1E"/>
<path d="M306.708 18.0261H315.083V53.8226C310.457 53.8226 306.708 50.0732 306.708 45.4481V18.0261Z" fill="#1E1E1E"/>
<path d="M300.083 26.4495C295.431 26.4495 291.66 22.6785 291.66 18.0268L330 18.0268C330 22.6785 326.229 26.4495 321.577 26.4495L300.083 26.4495Z" fill="url(#paint6_linear_74_19)"/>
<path d="M286.557 18.0261H294.931V53.2962C290.306 53.2962 286.557 49.5468 286.557 44.9217V18.0261Z" fill="#1E1E1E"/>
<defs>
<linearGradient id="paint0_linear_74_19" x1="231.429" y1="18.448" x2="231.429" y2="49.4826" gradientUnits="userSpaceOnUse">
<stop stop-color="#04FCDE"/>
<stop offset="1" stop-color="#0449FC"/>
</linearGradient>
<linearGradient id="paint1_linear_74_19" x1="219.429" y1="46.0342" x2="219.429" y2="64.9998" gradientUnits="userSpaceOnUse">
<stop stop-color="#04FCDE"/>
<stop offset="1" stop-color="#0449FC"/>
</linearGradient>
<linearGradient id="paint2_linear_74_19" x1="233.131" y1="49.8562" x2="237.485" y2="62.0232" gradientUnits="userSpaceOnUse">
<stop stop-color="#04FCDE"/>
<stop offset="1" stop-color="#0449FC"/>
</linearGradient>
<linearGradient id="paint3_linear_74_19" x1="239.808" y1="41.5969" x2="261.131" y2="17.9315" gradientUnits="userSpaceOnUse">
<stop stop-color="#04FCDE"/>
<stop offset="1" stop-color="#0449FC"/>
</linearGradient>
<linearGradient id="paint4_linear_74_19" x1="289.631" y1="20.8771" x2="275.756" y2="34.8896" gradientUnits="userSpaceOnUse">
<stop stop-color="#04FCDE"/>
<stop offset="1" stop-color="#0449FC"/>
</linearGradient>
<linearGradient id="paint5_linear_74_19" x1="268.999" y1="20.6846" x2="280.812" y2="35.1155" gradientUnits="userSpaceOnUse">
<stop stop-color="#04FCDE"/>
<stop offset="1" stop-color="#0449FC"/>
</linearGradient>
<linearGradient id="paint6_linear_74_19" x1="291.66" y1="22.2381" x2="330" y2="22.2381" gradientUnits="userSpaceOnUse">
<stop stop-color="#04FCDE"/>
<stop offset="1" stop-color="#0449FC"/>
</linearGradient>
<clipPath id="clip0_74_19">
<rect width="30.8571" height="31.0346" fill="white" transform="translate(216 18.448)"/>
</clipPath>
<clipPath id="clip1_74_19">
<rect width="18.8571" height="18.9656" fill="white" transform="translate(210 46.0342)"/>
</clipPath>
</defs>
</svg>
