<svg width="120" height="50" viewBox="0 0 120 50" fill="none" xmlns="http://www.w3.org/2000/svg">
<g clip-path="url(#clip0_68_1321)">
<path d="M21.4288 25.4758C17.8735 25.4758 14.9555 22.5748 14.9555 18.9653C14.9555 15.3896 17.84 12.4548 21.4288 12.4548C24.9841 12.4548 27.9021 15.3558 27.9021 18.9653C27.9021 22.541 24.9841 25.4758 21.4288 25.4758ZM21.4288 14.8498C19.1816 14.8498 17.3369 16.7052 17.3369 18.9653C17.3369 21.2254 19.1816 23.0808 21.4288 23.0808C23.676 23.0808 25.5207 21.2254 25.5207 18.9653C25.5207 16.7052 23.676 14.8498 21.4288 14.8498ZM21.4288 34.4826H21.2611C20.0872 34.4826 19.081 34.3477 19.0139 34.3477C18.4772 34.2802 18.0748 33.8754 17.9741 33.3357L17.6387 30.9069C16.9009 30.6707 16.1965 30.3671 15.5257 29.9961L13.6474 31.4466C13.2114 31.7839 12.6412 31.7502 12.2052 31.4466C12.1717 31.4129 11.3667 30.7719 10.5282 29.9623L10.394 29.8274C9.55552 28.9841 8.95179 28.1745 8.91825 28.1407C8.58285 27.7022 8.58285 27.1287 8.91825 26.6902L10.394 24.7337C10.0251 24.059 9.75676 23.3169 9.52198 22.5748L7.17416 22.2374C6.63751 22.17 6.23503 21.7314 6.16795 21.1917C6.13441 21.158 6.00024 20.146 6.00024 18.9653V18.7966C6.00024 17.616 6.13441 16.604 6.13441 16.5365C6.20149 15.9968 6.60397 15.592 7.14062 15.4908L9.55552 15.1534C9.7903 14.4113 10.0922 13.7029 10.4611 13.0282L9.01887 11.1392C8.68347 10.7006 8.71701 10.1272 9.01887 9.68865C9.05241 9.65492 9.68968 8.84532 10.4946 8.00199L10.6288 7.86705C11.4673 7.02372 12.2723 6.41652 12.3058 6.38279C12.7418 6.04546 13.312 6.04546 13.7481 6.38279L15.6934 7.86705C16.3642 7.49599 17.1021 7.22612 17.84 6.98999L18.1754 4.62866C18.2425 4.08893 18.6785 3.68413 19.2151 3.61666C19.2487 3.58293 20.2549 3.448 21.4288 3.448H21.5965C22.7704 3.448 23.7766 3.58293 23.8437 3.58293C24.3803 3.6504 24.7828 4.0552 24.8834 4.59493L25.2189 7.02372C25.9567 7.25986 26.6611 7.56345 27.3319 7.93452L29.2101 6.48399C29.6462 6.14666 30.2164 6.18039 30.6524 6.48399C30.6859 6.51772 31.4909 7.15866 32.3294 7.96825L32.4636 8.10319C33.3021 8.94652 33.9058 9.75612 33.9393 9.78985C34.2747 10.2284 34.2747 10.8018 33.9393 11.2404L32.4971 13.1969C32.866 13.8716 33.1344 14.6137 33.3692 15.3558L35.717 15.6932C36.2536 15.7606 36.6561 16.1992 36.7232 16.7389C36.7232 16.7726 36.8573 17.8184 36.8573 18.999V19.1677C36.8573 20.3484 36.7232 21.3604 36.7232 21.4278C36.6561 21.9676 36.2536 22.3724 35.717 22.4736L33.3021 22.8109C33.0673 23.553 32.7654 24.2614 32.3965 24.9361L33.8387 26.8589C34.1741 27.2974 34.1406 27.8709 33.8387 28.3094C33.8052 28.3431 33.1679 29.1527 32.3629 29.9961L32.2288 30.131C31.3903 30.9743 30.5853 31.5815 30.5518 31.6153C30.1157 31.9526 29.5456 31.9526 29.1095 31.6153L27.1642 30.0973C26.4934 30.4683 25.7555 30.7382 25.0176 30.9743L24.6822 33.3357C24.6151 33.8754 24.1791 34.2802 23.6425 34.3477C23.6089 34.3477 22.6027 34.4826 21.4288 34.4826ZM20.2213 32.0538C20.5232 32.0875 20.8921 32.0875 21.2611 32.0875H21.4288C21.7977 32.0875 22.1667 32.0875 22.4685 32.0538L22.7704 29.8274C22.8375 29.3214 23.2064 28.9503 23.676 28.8154C24.7157 28.5793 25.722 28.1745 26.6275 27.601C26.8959 27.4323 27.2313 27.3986 27.5331 27.4661C27.7008 27.4998 27.8685 27.601 28.0027 27.7022L29.7803 29.0515C30.0151 28.8491 30.2834 28.613 30.5518 28.3431L30.6859 28.2082C30.9542 27.9383 31.189 27.6685 31.3903 27.4323L30.0487 25.6445C29.7468 25.2397 29.7468 24.6999 29.9816 24.2951C30.5518 23.4181 30.9542 22.4398 31.189 21.4278C31.2896 20.9218 31.6921 20.517 32.1952 20.4496L34.4424 20.146C34.476 19.8424 34.476 19.4713 34.476 19.1002V18.9653C34.476 18.5942 34.476 18.2232 34.4424 17.9196L32.2288 17.616C31.7592 17.5485 31.3567 17.1774 31.2226 16.7052C30.9878 15.6594 30.5853 14.6812 30.0487 13.7704C29.9816 13.7029 29.948 13.6017 29.9145 13.5005C29.7803 13.1294 29.8474 12.6909 30.0822 12.3873L31.4574 10.5657C31.2561 10.3296 31.0213 10.0597 30.753 9.78985L30.6188 9.65492C30.3505 9.38505 30.0822 9.14892 29.8474 8.94652L28.0698 10.2958C27.6338 10.5994 27.0636 10.5994 26.6611 10.2958C25.789 9.75612 24.8164 9.35132 23.8102 9.08145C23.3406 8.98025 22.9716 8.57545 22.9046 8.06945L22.6027 5.80933C22.3008 5.77559 21.9319 5.77559 21.563 5.77559H21.4288C21.0599 5.77559 20.6909 5.77559 20.389 5.80933L20.0872 8.10319C20.0201 8.64292 19.6176 9.04772 19.081 9.11518C18.0748 9.35132 17.1021 9.75612 16.23 10.2958C15.9617 10.4645 15.6263 10.4982 15.3245 10.4308C15.1568 10.397 14.9891 10.2958 14.8549 10.1946L13.1108 8.84532C12.876 9.04772 12.6077 9.28385 12.3394 9.55372L12.2052 9.68865C11.9369 9.95852 11.7021 10.2284 11.5009 10.4645L12.8425 12.2524C13.1443 12.6572 13.1443 13.1632 12.9096 13.6017C12.876 13.6354 12.876 13.6692 12.8425 13.7029C12.3058 14.58 11.9033 15.5582 11.6686 16.5702C11.5679 17.0425 11.1655 17.4136 10.6623 17.481L8.41515 17.7846C8.38161 18.0882 8.38161 18.4593 8.38161 18.8304V18.9653C8.38161 19.3364 8.38161 19.7074 8.41515 20.011L10.6288 20.3146C11.1655 20.3821 11.5679 20.7869 11.635 21.3266V21.3604C11.8698 22.3724 12.2723 23.3169 12.8089 24.1939C12.9766 24.4975 13.0437 24.8686 12.9096 25.2059C12.876 25.3409 12.7754 25.4758 12.6748 25.6107L11.3667 27.3649C11.5679 27.601 11.8027 27.8709 12.071 28.1407L12.2052 28.2757C12.4735 28.5455 12.7418 28.7817 12.9766 28.9841L14.7543 27.6347C15.1903 27.2974 15.8276 27.3311 16.23 27.6685C17.1021 28.2082 18.0412 28.5793 19.0139 28.8491C19.4835 28.9503 19.8524 29.3551 19.9195 29.8611L20.2213 32.0538Z" fill="url(#paint0_linear_68_1321)"/>
</g>
<g clip-path="url(#clip1_68_1321)">
<path d="M9.42856 44.4956C7.25589 44.4956 5.47266 42.7228 5.47266 40.517C5.47266 38.3318 7.23539 36.5383 9.42856 36.5383C11.6012 36.5383 13.3845 38.3112 13.3845 40.517C13.3845 42.7021 11.6012 44.4956 9.42856 44.4956ZM9.42856 38.002C8.05527 38.002 6.92794 39.1358 6.92794 40.517C6.92794 41.8982 8.05527 43.032 9.42856 43.032C10.8018 43.032 11.9292 41.8982 11.9292 40.517C11.9292 39.1358 10.8018 38.002 9.42856 38.002ZM9.42856 49.9998H9.32607C8.60868 49.9998 7.99378 49.9173 7.95278 49.9173C7.62483 49.8761 7.37887 49.6287 7.31738 49.2989L7.11241 47.8146C6.66148 47.6703 6.23105 47.4848 5.82111 47.258L4.67329 48.1444C4.40683 48.3506 4.05838 48.33 3.79192 48.1444C3.77142 48.1238 3.2795 47.7321 2.76708 47.2374L2.68509 47.1549C2.17267 46.6396 1.80372 46.1448 1.78323 46.1242C1.57826 45.8562 1.57826 45.5057 1.78323 45.2378L2.68509 44.0421C2.45962 43.6298 2.29565 43.1763 2.15217 42.7228L0.71739 42.5166C0.38944 42.4754 0.143478 42.2074 0.102484 41.8775C0.0819875 41.8569 0 41.2385 0 40.517V40.4139C0 39.6924 0.0819875 39.0739 0.0819875 39.0327C0.122981 38.7029 0.368944 38.4555 0.696894 38.3937L2.17267 38.1875C2.31615 37.734 2.50062 37.3011 2.72608 36.8888L1.84472 35.7343C1.63975 35.4664 1.66025 35.1159 1.84472 34.8479C1.86521 34.8273 2.25466 34.3325 2.74658 33.8172L2.82857 33.7347C3.34099 33.2193 3.83291 32.8483 3.85341 32.8277C4.11987 32.6215 4.46832 32.6215 4.73478 32.8277L5.92359 33.7347C6.33353 33.508 6.78446 33.343 7.23539 33.1987L7.44036 31.7557C7.48136 31.4259 7.74782 31.1785 8.07577 31.1373C8.09626 31.1166 8.71117 31.0342 9.42856 31.0342H9.53104C10.2484 31.0342 10.8633 31.1166 10.9043 31.1166C11.2323 31.1579 11.4782 31.4052 11.5397 31.7351L11.7447 33.2193C12.1956 33.3636 12.6261 33.5492 13.036 33.7759L14.1838 32.8895C14.4503 32.6834 14.7987 32.704 15.0652 32.8895C15.0857 32.9101 15.5776 33.3018 16.09 33.7966L16.172 33.879C16.6845 34.3944 17.0534 34.8891 17.0739 34.9098C17.2789 35.1777 17.2789 35.5282 17.0739 35.7962L16.1925 36.9918C16.418 37.4041 16.582 37.8577 16.7254 38.3112L18.1602 38.5173C18.4882 38.5586 18.7341 38.8266 18.7751 39.1564C18.7751 39.177 18.8571 39.8161 18.8571 40.5376V40.6407C18.8571 41.3622 18.7751 41.9806 18.7751 42.0218C18.7341 42.3517 18.4882 42.5991 18.1602 42.6609L16.6844 42.8671C16.541 43.3206 16.3565 43.7535 16.131 44.1658L17.0124 45.3408C17.2174 45.6088 17.1969 45.9593 17.0124 46.2273C16.9919 46.2479 16.6025 46.7426 16.1105 47.258L16.0285 47.3405C15.5161 47.8558 15.0242 48.2269 15.0037 48.2475C14.7372 48.4537 14.3888 48.4537 14.1223 48.2475L12.9335 47.3198C12.5236 47.5466 12.0727 47.7115 11.6217 47.8558L11.4168 49.2989C11.3758 49.6287 11.1093 49.8761 10.7814 49.9173C10.7609 49.9173 10.1459 49.9998 9.42856 49.9998ZM8.69067 48.5155C8.87514 48.5361 9.10061 48.5361 9.32607 48.5361H9.42856C9.65402 48.5361 9.87949 48.5361 10.064 48.5155L10.2484 47.1549C10.2894 46.8457 10.5149 46.6189 10.8018 46.5365C11.4373 46.3922 12.0522 46.1448 12.6056 45.7943C12.7695 45.6913 12.9745 45.6707 13.159 45.7119C13.2615 45.7325 13.364 45.7944 13.4459 45.8562L14.5323 46.6808C14.6758 46.5571 14.8397 46.4128 15.0037 46.2479L15.0857 46.1654C15.2497 46.0005 15.3931 45.8356 15.5161 45.6913L14.6963 44.5987C14.5118 44.3513 14.5118 44.0215 14.6553 43.7741C15.0037 43.2381 15.2497 42.6403 15.3931 42.0218C15.4546 41.7126 15.7006 41.4653 16.0081 41.424L17.3813 41.2385C17.4018 41.053 17.4018 40.8262 17.4018 40.5994V40.517C17.4018 40.2902 17.4018 40.0634 17.3813 39.8779L16.0285 39.6924C15.7416 39.6512 15.4956 39.4244 15.4136 39.1358C15.2702 38.4967 15.0242 37.8989 14.6963 37.3423C14.6553 37.3011 14.6348 37.2392 14.6143 37.1774C14.5323 36.9506 14.5733 36.6826 14.7168 36.4971L15.5571 35.3839C15.4341 35.2396 15.2907 35.0747 15.1267 34.9098L15.0447 34.8273C14.8807 34.6624 14.7168 34.5181 14.5733 34.3944L13.4869 35.219C13.2205 35.4045 12.872 35.4045 12.6261 35.219C12.0932 34.8891 11.4987 34.6418 10.8838 34.4768C10.5969 34.415 10.3714 34.1676 10.3304 33.8584L10.1459 32.4772C9.96148 32.4566 9.73601 32.4566 9.51055 32.4566H9.42856C9.20309 32.4566 8.97763 32.4566 8.79316 32.4772L8.60868 33.879C8.56769 34.2089 8.32173 34.4562 7.99378 34.4975C7.37887 34.6418 6.78446 34.8891 6.25154 35.219C6.08757 35.3221 5.8826 35.3427 5.69813 35.3014C5.59564 35.2808 5.49316 35.219 5.41117 35.1571L4.34534 34.3325C4.20186 34.4562 4.03788 34.6005 3.87391 34.7655L3.79192 34.8479C3.62795 35.0128 3.48447 35.1777 3.36149 35.3221L4.18136 36.4146C4.36583 36.662 4.36583 36.9712 4.22235 37.2392C4.20186 37.2598 4.20186 37.2805 4.18136 37.3011C3.85341 37.8371 3.60745 38.4349 3.46397 39.0533C3.40248 39.3419 3.15652 39.5687 2.84906 39.6099L1.47577 39.7955C1.45528 39.981 1.45528 40.2077 1.45528 40.4345V40.517C1.45528 40.7437 1.45528 40.9705 1.47577 41.156L2.82857 41.3416C3.15652 41.3828 3.40248 41.6302 3.44347 41.96V41.9806C3.58695 42.5991 3.83291 43.1763 4.16086 43.7123C4.26335 43.8978 4.30434 44.1246 4.22235 44.3307C4.20186 44.4132 4.14037 44.4956 4.07888 44.5781L3.2795 45.65C3.40248 45.7944 3.54596 45.9593 3.70993 46.1242L3.79192 46.2066C3.9559 46.3716 4.11987 46.5159 4.26335 46.6396L5.34968 45.815C5.61614 45.6088 6.00558 45.6294 6.25154 45.8356C6.78446 46.1654 7.35838 46.3922 7.95278 46.5571C8.23974 46.6189 8.46521 46.8663 8.5062 47.1755L8.69067 48.5155Z" fill="url(#paint1_linear_68_1321)"/>
</g>
<path d="M26.1901 43.5033C24.7944 44.0028 23.2461 43.2739 22.7448 41.857C22.2481 40.4533 22.9729 38.896 24.3817 38.3918C25.7773 37.8924 27.3257 38.6213 27.827 40.0382C28.3236 41.4419 27.5857 43.0039 26.1901 43.5033ZM24.7143 39.332C23.8322 39.6477 23.3657 40.6352 23.6796 41.5224C23.9935 42.4097 24.9753 42.8788 25.8575 42.5631C26.7396 42.2474 27.2061 41.26 26.8922 40.3727C26.5783 39.4855 25.5965 39.0163 24.7143 39.332ZM27.441 47.039L27.3751 47.0625C26.9143 47.2275 26.5006 47.3159 26.4743 47.3253C26.2542 47.3742 26.04 47.2718 25.9255 47.0741L25.4566 46.1678C25.1341 46.1787 24.8154 46.1585 24.5006 46.1071L23.9647 46.9404C23.8404 47.134 23.6119 47.2009 23.3986 47.143C23.3807 47.1344 22.9757 46.9959 22.5341 46.7959L22.4627 46.7618C22.0164 46.5485 21.667 46.3155 21.6491 46.307C21.4565 46.182 21.3769 45.9569 21.4477 45.7376L21.7553 44.7622C21.5167 44.5492 21.3083 44.2956 21.1131 44.0372L20.1446 44.2347C19.9246 44.2836 19.7057 44.168 19.6044 43.9655C19.5865 43.957 19.3933 43.5786 19.2293 43.1151L19.2059 43.0489C19.0419 42.5854 18.954 42.1693 18.9447 42.1428C18.896 41.9215 18.9978 41.7061 19.1944 41.5909L20.0956 41.1193C20.0847 40.7949 20.1048 40.4744 20.1559 40.1578L19.3274 39.6188C19.1348 39.4938 19.0683 39.264 19.1259 39.0494C19.1344 39.0315 19.2721 38.6241 19.471 38.18L19.5049 38.1082C19.717 37.6593 19.9486 37.3079 19.9571 37.2899C20.0814 37.0962 20.3052 37.0161 20.5233 37.0873L21.4931 37.3967C21.7048 37.1568 21.957 36.9472 22.2139 36.7508L22.0176 35.7767C21.969 35.5554 22.0839 35.3353 22.2852 35.2334C22.2937 35.2154 22.67 35.0211 23.1308 34.8562L23.1966 34.8326C23.6574 34.6677 24.0712 34.5793 24.0975 34.5699C24.3175 34.521 24.5318 34.6234 24.6462 34.8211L25.1152 35.7274C25.4377 35.7164 25.7563 35.7367 26.0712 35.7881L26.607 34.9548C26.7314 34.7611 26.9599 34.6943 27.1732 34.7522C27.1911 34.7607 27.5961 34.8992 28.0377 35.0993L28.1091 35.1334C28.5554 35.3466 28.9048 35.5796 28.9226 35.5882C29.1152 35.7132 29.1949 35.9383 29.1241 36.1576L28.8297 37.1282C29.0682 37.3412 29.2766 37.5949 29.4718 37.8532L30.4403 37.6558C30.6604 37.6069 30.8793 37.7225 30.9806 37.925C30.9853 37.9382 31.1832 38.3299 31.3471 38.7933L31.3706 38.8595C31.5345 39.323 31.6224 39.7391 31.6318 39.7656C31.6804 39.9869 31.5786 40.2024 31.382 40.3175L30.4809 40.7892C30.4918 41.1135 30.4717 41.434 30.4206 41.7506L31.2538 42.3028C31.4463 42.4279 31.5128 42.6577 31.4552 42.8722C31.4467 42.8902 31.309 43.2975 31.1101 43.7417L31.0762 43.8135C30.8642 44.2624 30.6325 44.6138 30.624 44.6318C30.4997 44.8254 30.2759 44.9055 30.0579 44.8344L29.0834 44.5118C28.8716 44.7517 28.6194 44.9613 28.3626 45.1576L28.5588 46.1317C28.6075 46.353 28.4925 46.5732 28.2912 46.675C28.2781 46.6797 27.9018 46.8741 27.441 47.039ZM26.6297 46.2552C26.7529 46.226 26.8977 46.1742 27.0425 46.1224L27.1083 46.0988C27.2532 46.047 27.398 45.9951 27.5118 45.9395L27.3211 45.0231C27.2772 44.815 27.3705 44.6175 27.5361 44.4986C27.9114 44.2598 28.2502 43.9596 28.526 43.6072C28.6079 43.5033 28.7349 43.443 28.8628 43.427C28.9333 43.4167 29.0132 43.4329 29.0799 43.4538L29.9651 43.7337C30.0292 43.6213 30.1017 43.4909 30.1696 43.3473L30.2035 43.2754C30.2714 43.1318 30.326 42.9929 30.3722 42.8719L29.5973 42.3586C29.4226 42.2421 29.3476 42.0302 29.3836 41.8383C29.4856 41.4139 29.5077 40.9733 29.4593 40.5431C29.4285 40.3303 29.5303 40.1149 29.7184 40.0177L30.5584 39.5828C30.5294 39.4589 30.4779 39.3133 30.4264 39.1676L30.4076 39.1146C30.3561 38.969 30.3046 38.8233 30.2492 38.7088L29.3381 38.9007C29.1444 38.9401 28.9348 38.851 28.8166 38.6845C28.5792 38.3069 28.2853 37.9795 27.9482 37.6973C27.9125 37.6803 27.8852 37.6452 27.858 37.6102C27.7538 37.4834 27.7192 37.3018 27.7692 37.1497L28.0561 36.2414C27.9443 36.177 27.8146 36.104 27.6718 36.0358L27.6004 36.0017C27.4576 35.9334 27.3195 35.8784 27.1992 35.832L26.6888 36.6114C26.5598 36.7918 26.336 36.8719 26.1358 36.8093C25.7185 36.7199 25.2805 36.6977 24.848 36.7331C24.6496 36.7593 24.4486 36.6522 24.352 36.463L23.9196 35.6182C23.7964 35.6474 23.6515 35.6992 23.5067 35.751L23.454 35.7699C23.3092 35.8217 23.1644 35.8736 23.0506 35.9292L23.2507 36.8721C23.2993 37.0934 23.1975 37.3088 22.9962 37.4107C22.634 37.6448 22.3084 37.9403 22.041 38.2747C21.9591 38.3786 21.8322 38.439 21.7043 38.4549C21.6338 38.4652 21.5539 38.449 21.4872 38.4282L20.6151 38.1435C20.551 38.2559 20.4785 38.3863 20.4107 38.53L20.3767 38.6018C20.3089 38.7454 20.2542 38.8843 20.208 39.0053L20.983 39.5187C21.1577 39.6352 21.228 39.8338 21.1967 40.0389C21.1882 40.0569 21.1929 40.0701 21.1844 40.0881C21.0956 40.5078 21.0734 40.9483 21.1218 41.3786C21.1479 41.5781 21.0414 41.7803 20.8533 41.8775L20.0133 42.3123C20.0423 42.4362 20.0939 42.5819 20.1454 42.7276L20.1641 42.7805C20.2157 42.9262 20.2672 43.0719 20.3225 43.1863L21.2337 42.9945C21.4537 42.9456 21.6679 43.048 21.7692 43.2504L21.7739 43.2637C22.0066 43.628 22.2958 43.9422 22.6283 44.2111C22.7363 44.3067 22.8141 44.443 22.8083 44.5942C22.8139 44.6519 22.7931 44.719 22.7724 44.7861L22.5025 45.6585C22.6143 45.7229 22.744 45.7958 22.8868 45.8641L22.9582 45.8982C23.101 45.9665 23.2391 46.0215 23.3594 46.0679L23.8698 45.2885C23.9941 45.0948 24.249 45.0185 24.4538 45.0944C24.8711 45.1838 25.2913 45.1975 25.7106 45.1668C25.909 45.1406 26.11 45.2476 26.2066 45.4368L26.6297 46.2552Z" fill="url(#paint2_linear_68_1321)"/>
<path d="M36.6743 23.447L42.2091 17.126L54.3548 27.8838C57.2494 30.4476 57.5309 34.8843 54.9836 37.7935C54.4742 38.3753 53.5918 38.4313 53.0129 37.9185L36.6743 23.447Z" fill="#1E1E1E"/>
<path d="M32.9272 29.407L26.6896 23.7869L43.2236 5.22452C45.7937 2.33904 50.2045 2.09672 53.0753 4.6833C53.6494 5.20061 53.6982 6.08781 53.1841 6.6649L32.9272 29.407Z" fill="url(#paint3_linear_68_1321)"/>
<path d="M82.6074 8.82446L76.6544 2.92972L62.8595 17.0218C66.1472 20.2774 71.4363 20.2362 74.673 16.9298L82.6074 8.82446Z" fill="url(#paint4_linear_68_1321)"/>
<path d="M55.7515 8.34302L62.2465 3.02612L73.9787 17.5234C70.3915 20.4598 65.1195 19.919 62.2033 16.3154L55.7515 8.34302Z" fill="url(#paint5_linear_68_1321)"/>
<path d="M26.5713 3.55298H34.9458V31.8443C34.9458 35.6986 31.8213 38.8231 27.967 38.8231C27.1962 38.8231 26.5713 38.1982 26.5713 37.4273V3.55298Z" fill="#1E1E1E"/>
<path d="M53.9199 3.02612H62.2945V29.9217C62.2945 34.5468 58.5451 38.2962 53.9199 38.2962V3.02612Z" fill="#1E1E1E"/>
<path d="M96.708 3.02612L105.083 3.02612V38.8226C100.457 38.8226 96.708 35.0732 96.708 30.4481V3.02612Z" fill="#1E1E1E"/>
<path d="M90.0829 11.4495C85.4311 11.4495 81.6602 7.67849 81.6602 3.02676L120 3.02675C120 7.67848 116.229 11.4495 111.577 11.4495L90.0829 11.4495Z" fill="url(#paint6_linear_68_1321)"/>
<path d="M76.5566 3.02612H84.9312V38.2962C80.306 38.2962 76.5566 34.5468 76.5566 29.9217V3.02612Z" fill="#1E1E1E"/>
<defs>
<linearGradient id="paint0_linear_68_1321" x1="21.4288" y1="3.448" x2="21.4288" y2="34.4826" gradientUnits="userSpaceOnUse">
<stop stop-color="#04FCDE"/>
<stop offset="1" stop-color="#0449FC"/>
</linearGradient>
<linearGradient id="paint1_linear_68_1321" x1="9.42856" y1="31.0342" x2="9.42856" y2="49.9998" gradientUnits="userSpaceOnUse">
<stop stop-color="#04FCDE"/>
<stop offset="1" stop-color="#0449FC"/>
</linearGradient>
<linearGradient id="paint2_linear_68_1321" x1="23.1308" y1="34.8562" x2="27.4851" y2="47.0232" gradientUnits="userSpaceOnUse">
<stop stop-color="#04FCDE"/>
<stop offset="1" stop-color="#0449FC"/>
</linearGradient>
<linearGradient id="paint3_linear_68_1321" x1="29.8084" y1="26.5969" x2="51.131" y2="2.9315" gradientUnits="userSpaceOnUse">
<stop stop-color="#04FCDE"/>
<stop offset="1" stop-color="#0449FC"/>
</linearGradient>
<linearGradient id="paint4_linear_68_1321" x1="79.6309" y1="5.87709" x2="65.7556" y2="19.8896" gradientUnits="userSpaceOnUse">
<stop stop-color="#04FCDE"/>
<stop offset="1" stop-color="#0449FC"/>
</linearGradient>
<linearGradient id="paint5_linear_68_1321" x1="58.999" y1="5.68457" x2="70.8122" y2="20.1155" gradientUnits="userSpaceOnUse">
<stop stop-color="#04FCDE"/>
<stop offset="1" stop-color="#0449FC"/>
</linearGradient>
<linearGradient id="paint6_linear_68_1321" x1="81.6602" y1="7.23811" x2="120" y2="7.23811" gradientUnits="userSpaceOnUse">
<stop stop-color="#04FCDE"/>
<stop offset="1" stop-color="#0449FC"/>
</linearGradient>
<clipPath id="clip0_68_1321">
<rect width="30.8571" height="31.0346" fill="white" transform="translate(6.00024 3.448)"/>
</clipPath>
<clipPath id="clip1_68_1321">
<rect width="18.8571" height="18.9656" fill="white" transform="translate(0 31.0342)"/>
</clipPath>
</defs>
</svg>
