<svg width="136" height="55" viewBox="0 0 136 55" fill="none" xmlns="http://www.w3.org/2000/svg">
<rect y="0.5" width="136" height="54" rx="10" fill="#0449FC"/>
<path d="M32.6034 33V21.8H37.4194C38.6354 21.8 39.59 22.0453 40.2834 22.536C40.9767 23.0267 41.3234 23.7413 41.3234 24.68C41.3234 25.5973 40.9927 26.3013 40.3314 26.792C39.67 27.272 38.8007 27.512 37.7234 27.512L38.0114 27.032C39.2594 27.032 40.214 27.2827 40.8754 27.784C41.5474 28.2747 41.8834 28.9947 41.8834 29.944C41.8834 30.904 41.5314 31.656 40.8274 32.2C40.134 32.7333 39.0994 33 37.7234 33H32.6034ZM34.1874 31.736H37.6914C38.5447 31.736 39.1847 31.5813 39.6114 31.272C40.0487 30.952 40.2674 30.4667 40.2674 29.816C40.2674 29.1653 40.0487 28.6907 39.6114 28.392C39.1847 28.0933 38.5447 27.944 37.6914 27.944H34.1874V31.736ZM34.1874 26.728H37.3074C38.086 26.728 38.678 26.5733 39.0834 26.264C39.4994 25.9547 39.7074 25.5013 39.7074 24.904C39.7074 24.296 39.4994 23.8373 39.0834 23.528C38.678 23.2187 38.086 23.064 37.3074 23.064H34.1874V26.728ZM42.9565 33L46.6045 28.264L46.5885 29.048L43.1165 24.52H44.8285L47.4845 28.008H46.8285L49.4845 24.52H51.1645L47.6445 29.08L47.6605 28.264L51.3405 33H49.5965L46.7965 29.288L47.4205 29.384L44.6685 33H42.9565ZM56.3075 33.096C55.4542 33.096 54.6968 32.9093 54.0355 32.536C53.3742 32.1627 52.8515 31.6507 52.4675 31C52.0835 30.3387 51.8915 29.592 51.8915 28.76C51.8915 27.9173 52.0835 27.1707 52.4675 26.52C52.8515 25.8693 53.3742 25.3627 54.0355 25C54.6968 24.6267 55.4542 24.44 56.3075 24.44C57.1502 24.44 57.9022 24.6267 58.5635 25C59.2355 25.3627 59.7582 25.8693 60.1315 26.52C60.5155 27.16 60.7075 27.9067 60.7075 28.76C60.7075 29.6027 60.5155 30.3493 60.1315 31C59.7582 31.6507 59.2355 32.1627 58.5635 32.536C57.9022 32.9093 57.1502 33.096 56.3075 33.096ZM56.3075 31.752C56.8515 31.752 57.3368 31.6293 57.7635 31.384C58.2008 31.1387 58.5422 30.792 58.7875 30.344C59.0328 29.8853 59.1555 29.3573 59.1555 28.76C59.1555 28.152 59.0328 27.6293 58.7875 27.192C58.5422 26.744 58.2008 26.3973 57.7635 26.152C57.3368 25.9067 56.8515 25.784 56.3075 25.784C55.7635 25.784 55.2782 25.9067 54.8515 26.152C54.4248 26.3973 54.0835 26.744 53.8275 27.192C53.5715 27.6293 53.4435 28.152 53.4435 28.76C53.4435 29.3573 53.5715 29.8853 53.8275 30.344C54.0835 30.792 54.4248 31.1387 54.8515 31.384C55.2782 31.6293 55.7635 31.752 56.3075 31.752ZM68.655 32.28V25.864H64.975L64.895 27.496C64.8737 28.0293 64.8363 28.5467 64.783 29.048C64.7403 29.5387 64.6657 29.992 64.559 30.408C64.463 30.824 64.319 31.1653 64.127 31.432C63.935 31.6987 63.679 31.864 63.359 31.928L61.839 31.656C62.1697 31.6667 62.4363 31.56 62.639 31.336C62.8417 31.1013 62.9963 30.7813 63.103 30.376C63.2203 29.9707 63.3057 29.512 63.359 29C63.4123 28.4773 63.455 27.9387 63.487 27.384L63.615 24.52H70.191V32.28H68.655ZM61.503 34.968V31.656H71.487V34.968H70.047V33H62.959V34.968H61.503Z" fill="#F8F8F8"/>
<path d="M102 36.5V34.5C102 33.4391 101.579 32.4217 100.828 31.6716C100.078 30.9214 99.0609 30.5 98 30.5H90C88.9391 30.5 87.9217 30.9214 87.1716 31.6716C86.4214 32.4217 86 33.4391 86 34.5V36.5" stroke="#F8F8F8" stroke-width="1.5" stroke-linecap="round" stroke-linejoin="round"/>
<path d="M94 26.5C96.2091 26.5 98 24.7091 98 22.5C98 20.2909 96.2091 18.5 94 18.5C91.7909 18.5 90 20.2909 90 22.5C90 24.7091 91.7909 26.5 94 26.5Z" stroke="#F8F8F8" stroke-width="1.5" stroke-linecap="round" stroke-linejoin="round"/>
</svg>
