<svg width="30" height="33" viewBox="0 0 30 33" fill="none" xmlns="http://www.w3.org/2000/svg">
<path d="M16.6406 32.8125C16.7857 32.8125 16.9248 32.7549 17.0273 32.6523C17.1299 32.5498 17.1875 32.4107 17.1875 32.2656V30.625H17.7344C17.8794 30.625 18.0185 30.5674 18.1211 30.4648C18.2236 30.3623 18.2812 30.2232 18.2812 30.0781V28.4375H18.8281C18.9732 28.4375 19.1123 28.3799 19.2148 28.2773C19.3174 28.1748 19.375 28.0357 19.375 27.8906V23.03C21.0146 22.2137 22.3946 20.9571 23.3605 19.4009C24.3264 17.8447 24.84 16.0503 24.8438 14.2188C24.8438 8.79156 20.4272 4.375 15 4.375C9.57281 4.375 5.15625 8.79156 5.15625 14.2188C5.16004 16.0503 5.67362 17.8447 6.63949 19.4009C7.60536 20.9571 8.98538 22.2137 10.625 23.03V27.8906C10.625 28.0357 10.6826 28.1748 10.7852 28.2773C10.8877 28.3799 11.0268 28.4375 11.1719 28.4375H11.7188V30.0781C11.7188 30.2232 11.7764 30.3623 11.8789 30.4648C11.9815 30.5674 12.1206 30.625 12.2656 30.625H12.8125V32.2656C12.8125 32.4107 12.8701 32.5498 12.9727 32.6523C13.0752 32.7549 13.2143 32.8125 13.3594 32.8125C13.5044 32.8125 13.6435 32.7549 13.7461 32.6523C13.8486 32.5498 13.9062 32.4107 13.9062 32.2656V30.625H16.0938V32.2656C16.0938 32.4107 16.1514 32.5498 16.2539 32.6523C16.3565 32.7549 16.4956 32.8125 16.6406 32.8125ZM11.3983 22.1856C9.86632 21.4915 8.56638 20.3713 7.65353 18.9586C6.74068 17.546 6.25346 15.9006 6.25 14.2188C6.25 9.39422 10.1755 5.46875 15 5.46875C19.8245 5.46875 23.75 9.39422 23.75 14.2188C23.7465 15.9006 23.2593 17.546 22.3465 18.9586C21.4336 20.3713 20.1337 21.4915 18.6017 22.1856C18.506 22.2292 18.4249 22.2994 18.368 22.3878C18.3112 22.4763 18.2811 22.5792 18.2812 22.6844V27.3438H16.6406V23.0683L18.2463 18.7863C18.2833 18.68 18.2856 18.5647 18.2528 18.457C18.2659 18.4122 18.2812 18.3684 18.2812 18.3203C18.2812 17.2648 17.4227 16.4062 16.3672 16.4062C15.8313 16.4062 15.3478 16.6294 15 16.9848C14.8223 16.802 14.6098 16.6565 14.375 16.5572C14.1401 16.4578 13.8878 16.4065 13.6328 16.4062C12.5773 16.4062 11.7188 17.2648 11.7188 18.3203C11.7188 18.3684 11.7341 18.4122 11.7461 18.457C11.7138 18.5648 11.7161 18.6799 11.7527 18.7863L13.3583 23.0683V27.3438H11.7188V22.6844C11.7189 22.5792 11.6888 22.4763 11.632 22.3878C11.5751 22.2994 11.494 22.2292 11.3983 22.1856ZM14.4181 22.7762L12.7895 18.433C12.7983 18.3958 12.8125 18.3608 12.8125 18.3203C12.8125 18.1028 12.8989 17.8941 13.0528 17.7403C13.2066 17.5864 13.4153 17.5 13.6328 17.5C13.8504 17.5 14.059 17.5864 14.2129 17.7403C14.3667 17.8941 14.4531 18.1028 14.4531 18.3203C14.4531 18.4654 14.5107 18.6045 14.6133 18.707C14.7159 18.8096 14.855 18.8672 15 18.8672C15.145 18.8672 15.2841 18.8096 15.3867 18.707C15.4893 18.6045 15.5469 18.4654 15.5469 18.3203C15.5469 18.1028 15.6333 17.8941 15.7871 17.7403C15.941 17.5864 16.1496 17.5 16.3672 17.5C16.5847 17.5 16.7934 17.5864 16.9472 17.7403C17.1011 17.8941 17.1875 18.1028 17.1875 18.3203C17.1875 18.3608 17.2017 18.3958 17.2105 18.433L15.5819 22.7762C15.5588 22.8378 15.5469 22.903 15.5469 22.9688V27.3438H14.4531V22.9688C14.4531 22.9031 14.4411 22.8375 14.4181 22.7762ZM17.1875 28.4375V29.5312H12.8125V28.4375H17.1875ZM15.5469 2.73438V0.546875C15.5469 0.401835 15.4893 0.262735 15.3867 0.160176C15.2841 0.057617 15.145 0 15 0C14.855 0 14.7159 0.057617 14.6133 0.160176C14.5107 0.262735 14.4531 0.401835 14.4531 0.546875V2.73438C14.4531 2.87942 14.5107 3.01852 14.6133 3.12107C14.7159 3.22363 14.855 3.28125 15 3.28125C15.145 3.28125 15.2841 3.22363 15.3867 3.12107C15.4893 3.01852 15.5469 2.87942 15.5469 2.73438ZM25.9375 14.2188C25.9375 14.3638 25.9951 14.5029 26.0977 14.6054C26.2002 14.708 26.3393 14.7656 26.4844 14.7656H28.6719C28.8169 14.7656 28.956 14.708 29.0586 14.6054C29.1611 14.5029 29.2188 14.3638 29.2188 14.2188C29.2188 14.0737 29.1611 13.9346 29.0586 13.8321C28.956 13.7295 28.8169 13.6719 28.6719 13.6719H26.4844C26.3393 13.6719 26.2002 13.7295 26.0977 13.8321C25.9951 13.9346 25.9375 14.0737 25.9375 14.2188ZM1.32812 14.7656H3.51562C3.66067 14.7656 3.79977 14.708 3.90232 14.6054C4.00488 14.5029 4.0625 14.3638 4.0625 14.2188C4.0625 14.0737 4.00488 13.9346 3.90232 13.8321C3.79977 13.7295 3.66067 13.6719 3.51562 13.6719H1.32812C1.18308 13.6719 1.04399 13.7295 0.941426 13.8321C0.838867 13.9346 0.78125 14.0737 0.78125 14.2188C0.78125 14.3638 0.838867 14.5029 0.941426 14.6054C1.04399 14.708 1.18308 14.7656 1.32812 14.7656ZM19.3947 4.15516C19.5029 4.15514 19.6087 4.12302 19.6986 4.06285C19.7886 4.00269 19.8587 3.9172 19.9 3.81719L20.7378 1.79594C20.7667 1.72932 20.7821 1.65762 20.783 1.58501C20.7838 1.5124 20.7703 1.44034 20.743 1.37304C20.7158 1.30573 20.6754 1.24453 20.6242 1.19299C20.5731 1.14146 20.5122 1.10063 20.4451 1.07289C20.378 1.04515 20.306 1.03105 20.2334 1.03141C20.1608 1.03177 20.089 1.04659 20.0221 1.07501C19.9553 1.10342 19.8948 1.14486 19.8442 1.1969C19.7935 1.24894 19.7538 1.31055 19.7272 1.37812L18.8894 3.39937C18.855 3.48245 18.8417 3.57271 18.8506 3.66216C18.8594 3.75162 18.8902 3.83751 18.9402 3.91224C18.9901 3.98697 19.0577 4.04823 19.137 4.0906C19.2163 4.13297 19.3048 4.15514 19.3947 4.15516ZM25.4005 19.1187L27.4217 19.9566C27.488 19.9844 27.5592 19.9989 27.6311 19.999C27.7031 19.9992 27.7743 19.9851 27.8407 19.9575C27.9072 19.9299 27.9675 19.8895 28.0181 19.8384C28.0688 19.7874 28.1089 19.7268 28.1359 19.6602C28.1913 19.5261 28.1912 19.3756 28.1356 19.2417C28.08 19.1077 27.9735 19.0014 27.8395 18.9459L25.8183 18.1081C25.6848 18.0556 25.5361 18.0577 25.4041 18.1138C25.2722 18.1699 25.1675 18.2756 25.1127 18.4081C25.058 18.5406 25.0574 18.6894 25.1112 18.8223C25.165 18.9552 25.2689 19.0617 25.4005 19.1187ZM2.15938 9.49156L4.18062 10.3294C4.24693 10.3572 4.31811 10.3717 4.39003 10.3718C4.46196 10.372 4.5332 10.3579 4.59964 10.3303C4.66607 10.3028 4.72637 10.2623 4.77704 10.2112C4.82772 10.1602 4.86776 10.0996 4.89484 10.033C4.95029 9.89909 4.95033 9.74867 4.89496 9.61476C4.83959 9.48084 4.73334 9.37438 4.59953 9.31875L2.57828 8.48094C2.51192 8.45343 2.4408 8.43927 2.36896 8.43925C2.29713 8.43923 2.226 8.45336 2.15962 8.48083C2.09325 8.50831 2.03294 8.54858 1.98213 8.59937C1.93133 8.65015 1.89102 8.71044 1.86352 8.7768C1.80797 8.91081 1.80793 9.06141 1.86341 9.19545C1.9189 9.3295 2.02536 9.43601 2.15938 9.49156ZM22.7339 5.71156C22.6314 5.81425 22.5738 5.95347 22.5739 6.09859C22.574 6.24371 22.6318 6.38285 22.7345 6.48539C22.8371 6.58793 22.9764 6.64548 23.1215 6.64538C23.2666 6.64528 23.4057 6.58753 23.5083 6.48484L25.0548 4.93828C25.1545 4.83514 25.2096 4.697 25.2083 4.55361C25.2071 4.41022 25.1496 4.27306 25.0482 4.17166C24.9468 4.07027 24.8096 4.01275 24.6662 4.01151C24.5228 4.01026 24.3847 4.06538 24.2816 4.165L22.7339 5.71156ZM5.33234 24.4333C5.47744 24.4333 5.61664 24.3759 5.71953 24.2736L7.26609 22.727C7.36571 22.6239 7.42083 22.4857 7.41959 22.3424C7.41834 22.199 7.36083 22.0618 7.25943 21.9604C7.15804 21.859 7.02087 21.8015 6.87749 21.8003C6.7341 21.799 6.59595 21.8541 6.49281 21.9538L4.94625 23.5003C4.87001 23.5768 4.81812 23.6741 4.79712 23.78C4.77612 23.886 4.78695 23.9957 4.82824 24.0955C4.86953 24.1953 4.93944 24.2806 5.02915 24.3407C5.11886 24.4008 5.22436 24.433 5.33234 24.4333ZM24.2805 24.2725C24.3311 24.3237 24.3914 24.3643 24.4579 24.3921C24.5243 24.4198 24.5956 24.4341 24.6677 24.4341C24.7397 24.4341 24.811 24.4198 24.8774 24.3921C24.9439 24.3643 25.0042 24.3237 25.0548 24.2725C25.1574 24.1699 25.215 24.0309 25.215 23.8859C25.215 23.7408 25.1574 23.6018 25.0548 23.4992L23.5083 21.9527C23.4051 21.853 23.267 21.7979 23.1236 21.7992C22.9802 21.8004 22.8431 21.8579 22.7417 21.9593C22.6403 22.0607 22.5828 22.1979 22.5815 22.3413C22.5803 22.4847 22.6354 22.6228 22.735 22.7259L24.2805 24.2725ZM4.94625 4.165C4.84373 4.26755 4.78613 4.40663 4.78613 4.55164C4.78613 4.69665 4.84373 4.83573 4.94625 4.93828L6.49281 6.48484C6.54346 6.53604 6.60377 6.57667 6.67023 6.60441C6.73669 6.63214 6.80799 6.64643 6.88 6.64643C6.95202 6.64643 7.02332 6.63214 7.08978 6.60441C7.15624 6.57667 7.21654 6.53604 7.26719 6.48484C7.36971 6.38229 7.42731 6.24321 7.42731 6.0982C7.42731 5.95319 7.36971 5.81412 7.26719 5.71156L5.71953 4.165C5.66882 4.1141 5.60857 4.07372 5.54222 4.04617C5.47587 4.01861 5.40473 4.00443 5.33289 4.00443C5.26105 4.00443 5.18991 4.01861 5.12356 4.04617C5.05721 4.07372 4.99696 4.1141 4.94625 4.165ZM27.4217 8.48094L25.4005 9.31875C25.2689 9.37582 25.165 9.48229 25.1112 9.6152C25.0574 9.74812 25.058 9.89686 25.1127 10.0294C25.1675 10.1619 25.2722 10.2676 25.4041 10.3237C25.5361 10.3798 25.6848 10.3819 25.8183 10.3294L27.8395 9.49156C27.9711 9.43449 28.075 9.32803 28.1288 9.19511C28.1826 9.06219 28.182 8.91345 28.1273 8.78093C28.0725 8.64841 27.9678 8.54271 27.8359 8.4866C27.7039 8.43049 27.5552 8.42845 27.4217 8.48094ZM4.18062 18.1081L2.15938 18.9459C2.02782 19.003 1.92395 19.1095 1.87013 19.2424C1.81632 19.3753 1.81686 19.524 1.87165 19.6566C1.92643 19.7891 2.03108 19.8948 2.16305 19.9509C2.29501 20.007 2.44374 20.009 2.57719 19.9566L4.59844 19.1187C4.72999 19.0617 4.83386 18.9552 4.88768 18.8223C4.9415 18.6894 4.94095 18.5406 4.88617 18.4081C4.83138 18.2756 4.72673 18.1699 4.59477 18.1138C4.4628 18.0577 4.31408 18.0556 4.18062 18.1081ZM10.6053 4.15516C10.6952 4.15514 10.7837 4.13297 10.863 4.0906C10.9423 4.04823 11.0099 3.98697 11.0598 3.91224C11.1098 3.83751 11.1406 3.75162 11.1494 3.66216C11.1583 3.57271 11.145 3.48245 11.1106 3.39937L10.2728 1.37812C10.2157 1.24657 10.1093 1.1427 9.97636 1.08888C9.84344 1.03507 9.6947 1.03561 9.56218 1.0904C9.42966 1.14518 9.32396 1.24983 9.26785 1.3818C9.21174 1.51376 9.2097 1.66249 9.26219 1.79594L10.1 3.81719C10.1413 3.9172 10.2114 4.00269 10.3014 4.06285C10.3913 4.12302 10.4971 4.15514 10.6053 4.15516Z" fill="#8A8E97"/>
</svg>
